<svg width="186" height="20" viewBox="0 0 186 20" fill="none" xmlns="http://www.w3.org/2000/svg">
<path d="M0.125 19V1.54545H7.69318C9.02273 1.54545 10.1392 1.72443 11.0426 2.08239C11.9517 2.44034 12.6364 2.94602 13.0966 3.59943C13.5625 4.25284 13.7955 5.02273 13.7955 5.90909C13.7955 6.55114 13.6534 7.13636 13.3693 7.66477C13.0909 8.19318 12.6989 8.63636 12.1932 8.99432C11.6875 9.34659 11.0966 9.59091 10.4205 9.72727V9.89773C11.1705 9.92614 11.8523 10.1165 12.4659 10.4688C13.0795 10.8153 13.5682 11.2955 13.9318 11.9091C14.2955 12.517 14.4773 13.233 14.4773 14.0568C14.4773 15.0114 14.2273 15.8608 13.7273 16.6051C13.233 17.3494 12.5284 17.9347 11.6136 18.3608C10.6989 18.7869 9.60795 19 8.34091 19H0.125ZM4.86364 15.2159H7.07955C7.875 15.2159 8.47159 15.0682 8.86932 14.7727C9.26705 14.4716 9.46591 14.0284 9.46591 13.4432C9.46591 13.0341 9.37216 12.6875 9.18466 12.4034C8.99716 12.1193 8.73011 11.9034 8.38352 11.7557C8.04261 11.608 7.63068 11.5341 7.14773 11.5341H4.86364V15.2159ZM4.86364 8.60227H6.80682C7.22159 8.60227 7.58807 8.53693 7.90625 8.40625C8.22443 8.27557 8.47159 8.08807 8.64773 7.84375C8.82955 7.59375 8.92045 7.28977 8.92045 6.93182C8.92045 6.39204 8.72727 5.98011 8.34091 5.69602C7.95455 5.40625 7.46591 5.26136 6.875 5.26136H4.86364V8.60227ZM19.8722 19.2045C19.0369 19.2045 18.2983 19.0682 17.6562 18.7955C17.0199 18.517 16.5199 18.0966 16.1562 17.5341C15.7926 16.9716 15.6108 16.2557 15.6108 15.3864C15.6108 14.6705 15.733 14.0597 15.9773 13.554C16.2216 13.0426 16.5625 12.625 17 12.3011C17.4375 11.9773 17.946 11.7301 18.5256 11.5597C19.1108 11.3892 19.7415 11.2784 20.4176 11.2273C21.1506 11.1705 21.7386 11.1023 22.1818 11.0227C22.6307 10.9375 22.9545 10.821 23.1534 10.6733C23.3523 10.5199 23.4517 10.3182 23.4517 10.0682V10.0341C23.4517 9.69318 23.321 9.43182 23.0597 9.25C22.7983 9.06818 22.4631 8.97727 22.054 8.97727C21.6051 8.97727 21.2386 9.0767 20.9545 9.27557C20.6761 9.46875 20.5085 9.76705 20.4517 10.1705H16.1222C16.179 9.375 16.4318 8.64205 16.8807 7.97159C17.3352 7.29545 17.9972 6.75568 18.8665 6.35227C19.7358 5.94318 20.821 5.73864 22.1222 5.73864C23.0597 5.73864 23.9006 5.84943 24.6449 6.07102C25.3892 6.28693 26.0227 6.59091 26.5455 6.98295C27.0682 7.36932 27.4659 7.82386 27.7386 8.34659C28.017 8.86364 28.1562 9.42614 28.1562 10.0341V19H23.7585V17.1591H23.6562C23.3949 17.6477 23.0767 18.0426 22.7017 18.3438C22.3324 18.6449 21.9091 18.8636 21.4318 19C20.9602 19.1364 20.4403 19.2045 19.8722 19.2045ZM21.4062 16.2386C21.7642 16.2386 22.0994 16.1648 22.4119 16.017C22.7301 15.8693 22.9886 15.6562 23.1875 15.3778C23.3864 15.0994 23.4858 14.7614 23.4858 14.3636V13.2727C23.3608 13.3239 23.2273 13.3722 23.0852 13.4176C22.9489 13.4631 22.8011 13.5057 22.642 13.5455C22.4886 13.5852 22.3239 13.6222 22.1477 13.6562C21.9773 13.6903 21.7983 13.7216 21.6108 13.75C21.2472 13.8068 20.9489 13.9006 20.7159 14.0312C20.4886 14.1562 20.3182 14.3125 20.2045 14.5C20.0966 14.6818 20.0426 14.8864 20.0426 15.1136C20.0426 15.4773 20.1705 15.7557 20.4261 15.9489C20.6818 16.142 21.0085 16.2386 21.4062 16.2386ZM35.1087 1.54545V19H30.4041V1.54545H35.1087ZM42.2443 19.1705C41.3125 19.1705 40.4545 18.9261 39.6705 18.4375C38.892 17.9489 38.267 17.2074 37.7955 16.2131C37.3295 15.2187 37.0966 13.9659 37.0966 12.4545C37.0966 10.875 37.3409 9.59091 37.8295 8.60227C38.3239 7.61364 38.9602 6.8892 39.7386 6.42898C40.5227 5.96875 41.3466 5.73864 42.2102 5.73864C42.858 5.73864 43.4261 5.85227 43.9148 6.07954C44.4034 6.30114 44.8125 6.59943 45.142 6.97443C45.4716 7.34375 45.7216 7.75 45.892 8.19318H45.9602V1.54545H50.6648V19H45.9943V16.8523H45.892C45.7102 17.2955 45.4489 17.6932 45.108 18.0455C44.7727 18.392 44.3636 18.6676 43.8807 18.8722C43.4034 19.071 42.858 19.1705 42.2443 19.1705ZM43.983 15.5568C44.4148 15.5568 44.7841 15.4318 45.0909 15.1818C45.4034 14.9261 45.642 14.5682 45.8068 14.108C45.9773 13.642 46.0625 13.0909 46.0625 12.4545C46.0625 11.8068 45.9773 11.2528 45.8068 10.7926C45.642 10.3267 45.4034 9.97159 45.0909 9.72727C44.7841 9.47727 44.4148 9.35227 43.983 9.35227C43.5511 9.35227 43.1818 9.47727 42.875 9.72727C42.5739 9.97159 42.3409 10.3267 42.1761 10.7926C42.017 11.2528 41.9375 11.8068 41.9375 12.4545C41.9375 13.1023 42.017 13.6591 42.1761 14.125C42.3409 14.5852 42.5739 14.9403 42.875 15.1903C43.1818 15.4347 43.5511 15.5568 43.983 15.5568ZM57.6875 1.54545H63.5852L67.642 11.4318H67.8466L71.9034 1.54545H77.8011V19H73.1648V8.90909H73.0284L69.142 18.8636H66.3466L62.4602 8.84091H62.3239V19H57.6875V1.54545ZM86.4219 19.2386C85.0014 19.2386 83.7855 18.9574 82.7741 18.3949C81.7628 17.8267 80.9872 17.0369 80.4474 16.0256C79.9077 15.0085 79.6378 13.8295 79.6378 12.4886C79.6378 11.1477 79.9077 9.97159 80.4474 8.96023C80.9872 7.94318 81.7628 7.15341 82.7741 6.59091C83.7855 6.02273 85.0014 5.73864 86.4219 5.73864C87.8423 5.73864 89.0582 6.02273 90.0696 6.59091C91.081 7.15341 91.8565 7.94318 92.3963 8.96023C92.9361 9.97159 93.206 11.1477 93.206 12.4886C93.206 13.8295 92.9361 15.0085 92.3963 16.0256C91.8565 17.0369 91.081 17.8267 90.0696 18.3949C89.0582 18.9574 87.8423 19.2386 86.4219 19.2386ZM86.456 15.7614C86.8537 15.7614 87.1974 15.6278 87.4872 15.3608C87.777 15.0937 88.0014 14.7131 88.1605 14.2188C88.3196 13.7244 88.3991 13.1364 88.3991 12.4545C88.3991 11.767 88.3196 11.179 88.1605 10.6903C88.0014 10.196 87.777 9.81534 87.4872 9.5483C87.1974 9.28125 86.8537 9.14773 86.456 9.14773C86.0355 9.14773 85.6747 9.28125 85.3736 9.5483C85.0724 9.81534 84.8423 10.196 84.6832 10.6903C84.5241 11.179 84.4446 11.767 84.4446 12.4545C84.4446 13.1364 84.5241 13.7244 84.6832 14.2188C84.8423 14.7131 85.0724 15.0937 85.3736 15.3608C85.6747 15.6278 86.0355 15.7614 86.456 15.7614ZM103.604 13.2727V5.90909H108.308V19H103.842V16.5114H103.706C103.422 17.3466 102.925 18 102.214 18.4716C101.504 18.9375 100.661 19.1705 99.6832 19.1705C98.7685 19.1705 97.9673 18.9602 97.2798 18.5398C96.598 18.1193 96.0668 17.5398 95.6861 16.8011C95.3111 16.0625 95.1207 15.2159 95.1151 14.2614V5.90909H99.8196V13.2727C99.8253 13.9205 99.9901 14.429 100.314 14.7983C100.643 15.1676 101.104 15.3523 101.695 15.3523C102.087 15.3523 102.425 15.2699 102.709 15.1051C102.999 14.9347 103.22 14.696 103.374 14.3892C103.533 14.0767 103.609 13.7045 103.604 13.2727ZM115.406 11.6364V19H110.701V5.90909H115.167V8.39773H115.303C115.587 7.56818 116.087 6.91761 116.803 6.44602C117.525 5.97443 118.366 5.73864 119.326 5.73864C120.252 5.73864 121.056 5.9517 121.738 6.37784C122.425 6.7983 122.957 7.37784 123.332 8.11648C123.712 8.85511 123.9 9.69886 123.894 10.6477V19H119.19V11.6364C119.195 10.9886 119.031 10.4801 118.695 10.1108C118.366 9.74148 117.906 9.55682 117.315 9.55682C116.928 9.55682 116.59 9.64205 116.3 9.8125C116.016 9.97727 115.798 10.2159 115.644 10.5284C115.491 10.8352 115.411 11.2045 115.406 11.6364ZM134.023 5.90909V9.31818H125.398V5.90909H134.023ZM127.069 2.77273H131.773V14.7898C131.773 14.9716 131.805 15.125 131.867 15.25C131.93 15.3693 132.026 15.4602 132.157 15.5227C132.288 15.5795 132.455 15.608 132.66 15.608C132.802 15.608 132.967 15.5909 133.154 15.5568C133.347 15.5227 133.489 15.4943 133.58 15.4716L134.262 18.7784C134.052 18.8409 133.751 18.9176 133.359 19.0085C132.972 19.0994 132.512 19.1591 131.978 19.1875C130.898 19.2443 129.992 19.1335 129.259 18.8551C128.526 18.571 127.975 18.125 127.606 17.517C127.237 16.9091 127.058 16.1477 127.069 15.233V2.77273ZM139.591 19.2045C138.756 19.2045 138.017 19.0682 137.375 18.7955C136.739 18.517 136.239 18.0966 135.875 17.5341C135.511 16.9716 135.33 16.2557 135.33 15.3864C135.33 14.6705 135.452 14.0597 135.696 13.554C135.94 13.0426 136.281 12.625 136.719 12.3011C137.156 11.9773 137.665 11.7301 138.244 11.5597C138.83 11.3892 139.46 11.2784 140.136 11.2273C140.869 11.1705 141.457 11.1023 141.901 11.0227C142.349 10.9375 142.673 10.821 142.872 10.6733C143.071 10.5199 143.17 10.3182 143.17 10.0682V10.0341C143.17 9.69318 143.04 9.43182 142.778 9.25C142.517 9.06818 142.182 8.97727 141.773 8.97727C141.324 8.97727 140.957 9.0767 140.673 9.27557C140.395 9.46875 140.227 9.76705 140.17 10.1705H135.841C135.898 9.375 136.151 8.64205 136.599 7.97159C137.054 7.29545 137.716 6.75568 138.585 6.35227C139.455 5.94318 140.54 5.73864 141.841 5.73864C142.778 5.73864 143.619 5.84943 144.364 6.07102C145.108 6.28693 145.741 6.59091 146.264 6.98295C146.787 7.36932 147.185 7.82386 147.457 8.34659C147.736 8.86364 147.875 9.42614 147.875 10.0341V19H143.477V17.1591H143.375C143.114 17.6477 142.795 18.0426 142.42 18.3438C142.051 18.6449 141.628 18.8636 141.151 19C140.679 19.1364 140.159 19.2045 139.591 19.2045ZM141.125 16.2386C141.483 16.2386 141.818 16.1648 142.131 16.017C142.449 15.8693 142.707 15.6562 142.906 15.3778C143.105 15.0994 143.205 14.7614 143.205 14.3636V13.2727C143.08 13.3239 142.946 13.3722 142.804 13.4176C142.668 13.4631 142.52 13.5057 142.361 13.5455C142.207 13.5852 142.043 13.6222 141.866 13.6562C141.696 13.6903 141.517 13.7216 141.33 13.75C140.966 13.8068 140.668 13.9006 140.435 14.0312C140.207 14.1562 140.037 14.3125 139.923 14.5C139.815 14.6818 139.761 14.8864 139.761 15.1136C139.761 15.4773 139.889 15.7557 140.145 15.9489C140.401 16.142 140.727 16.2386 141.125 16.2386ZM150.123 19V5.90909H154.827V19H150.123ZM152.475 4.54545C151.839 4.54545 151.293 4.33523 150.839 3.91477C150.384 3.49432 150.157 2.98864 150.157 2.39773C150.157 1.80682 150.384 1.30114 150.839 0.880681C151.293 0.460227 151.839 0.25 152.475 0.25C153.117 0.25 153.663 0.460227 154.112 0.880681C154.566 1.30114 154.793 1.80682 154.793 2.39773C154.793 2.98864 154.566 3.49432 154.112 3.91477C153.663 4.33523 153.117 4.54545 152.475 4.54545ZM161.929 11.6364V19H157.224V5.90909H161.69V8.39773H161.827C162.111 7.56818 162.611 6.91761 163.327 6.44602C164.048 5.97443 164.889 5.73864 165.849 5.73864C166.776 5.73864 167.58 5.9517 168.261 6.37784C168.949 6.7983 169.48 7.37784 169.855 8.11648C170.236 8.85511 170.423 9.69886 170.418 10.6477V19H165.713V11.6364C165.719 10.9886 165.554 10.4801 165.219 10.1108C164.889 9.74148 164.429 9.55682 163.838 9.55682C163.452 9.55682 163.114 9.64205 162.824 9.8125C162.54 9.97727 162.321 10.2159 162.168 10.5284C162.014 10.8352 161.935 11.2045 161.929 11.6364ZM184.706 10.1705H180.376C180.354 9.90341 180.26 9.6733 180.095 9.48011C179.93 9.28693 179.717 9.1392 179.456 9.03693C179.2 8.92898 178.916 8.875 178.604 8.875C178.2 8.875 177.854 8.94886 177.564 9.09659C177.274 9.24432 177.132 9.45455 177.138 9.72727C177.132 9.92045 177.214 10.0994 177.385 10.2642C177.561 10.429 177.899 10.5568 178.399 10.6477L181.058 11.125C182.399 11.3693 183.396 11.7812 184.05 12.3608C184.709 12.9347 185.041 13.7045 185.047 14.6705C185.041 15.6023 184.763 16.4119 184.212 17.0994C183.666 17.7812 182.919 18.3097 181.97 18.6847C181.027 19.054 179.95 19.2386 178.74 19.2386C176.74 19.2386 175.175 18.8295 174.044 18.0114C172.919 17.1932 172.291 16.1136 172.161 14.7727H176.831C176.893 15.1875 177.098 15.5085 177.445 15.7358C177.797 15.9574 178.24 16.0682 178.774 16.0682C179.206 16.0682 179.561 15.9943 179.839 15.8466C180.124 15.6989 180.268 15.4886 180.274 15.2159C180.268 14.9659 180.143 14.767 179.899 14.6193C179.661 14.4716 179.286 14.3523 178.774 14.2614L176.456 13.8523C175.121 13.6193 174.121 13.1761 173.456 12.5227C172.791 11.8693 172.462 11.0284 172.467 10C172.462 9.09091 172.7 8.32102 173.183 7.69034C173.672 7.05398 174.368 6.57102 175.271 6.24148C176.18 5.90625 177.257 5.73864 178.501 5.73864C180.393 5.73864 181.885 6.13068 182.976 6.91477C184.072 7.69886 184.649 8.78409 184.706 10.1705Z" fill="black"/>
</svg>
