<svg width="54" height="14" viewBox="0 0 54 14" fill="none" xmlns="http://www.w3.org/2000/svg">
<path d="M0.232955 11H6.45739V9.90625H1.46591V6.44602H6.05966V5.35227H1.46591V1.91193H6.37784V0.818182H0.232955V11ZM9.31605 3.36364H7.96378L10.3899 7.18182L7.96378 11H9.31605L11.1456 8.03693L12.9751 11H14.3274L11.8615 7.18182L14.3274 3.36364H12.9751L11.1456 6.4858L9.31605 3.36364ZM16.0016 13.8636H17.1749V9.8267H17.2743C17.5328 10.2443 18.03 11.1591 19.5016 11.1591C21.4107 11.1591 22.7431 9.62784 22.7431 7.2017C22.7431 4.79545 21.4107 3.2642 19.4817 3.2642C17.9902 3.2642 17.5328 4.17898 17.2743 4.5767H17.1351V3.36364H16.0016V13.8636ZM17.155 7.18182C17.155 5.47159 17.9107 4.31818 19.3425 4.31818C20.834 4.31818 21.5698 5.57102 21.5698 7.18182C21.5698 8.8125 20.8141 10.1051 19.3425 10.1051C17.9306 10.1051 17.155 8.91193 17.155 7.18182ZM25.7061 0.818182H24.5328V11H25.7061V0.818182ZM30.9574 11.1591C33.0256 11.1591 34.4176 9.58807 34.4176 7.22159C34.4176 4.83523 33.0256 3.2642 30.9574 3.2642C28.8892 3.2642 27.4972 4.83523 27.4972 7.22159C27.4972 9.58807 28.8892 11.1591 30.9574 11.1591ZM30.9574 10.1051C29.3864 10.1051 28.6705 8.75284 28.6705 7.22159C28.6705 5.69034 29.3864 4.31818 30.9574 4.31818C32.5284 4.31818 33.2443 5.69034 33.2443 7.22159C33.2443 8.75284 32.5284 10.1051 30.9574 10.1051ZM36.2086 11H37.3819V6.16761C37.3819 5.13352 38.1973 4.37784 39.3109 4.37784C39.6241 4.37784 39.9473 4.4375 40.0268 4.45739V3.2642C39.8926 3.25426 39.5843 3.24432 39.4103 3.24432C38.4956 3.24432 37.7001 3.76136 37.4217 4.51705H37.3422V3.36364H36.2086V11ZM44.3869 11.1591C45.938 11.1591 47.0716 10.3835 47.4295 9.23011L46.296 8.91193C45.9977 9.70739 45.3066 10.1051 44.3869 10.1051C43.0098 10.1051 42.0602 9.2152 42.0055 7.57955H47.5488V7.08239C47.5488 4.23864 45.8585 3.2642 44.2676 3.2642C42.1994 3.2642 40.8272 4.89489 40.8272 7.24148C40.8272 9.58807 42.1795 11.1591 44.3869 11.1591ZM42.0055 6.56534C42.085 5.37713 42.9252 4.31818 44.2676 4.31818C45.5403 4.31818 46.3556 5.27273 46.3556 6.56534H42.0055ZM49.3336 11H50.5069V6.16761C50.5069 5.13352 51.3223 4.37784 52.4359 4.37784C52.7491 4.37784 53.0723 4.4375 53.1518 4.45739V3.2642C53.0176 3.25426 52.7093 3.24432 52.5353 3.24432C51.6206 3.24432 50.8251 3.76136 50.5467 4.51705H50.4672V3.36364H49.3336V11Z" fill="black"/>
</svg>
