<svg width="41" height="15" viewBox="0 0 41 15" fill="none" xmlns="http://www.w3.org/2000/svg">
<path d="M8.53729 4.18182H10.0714C10.0011 2.20668 8.17933 0.730113 5.64808 0.730113C3.1424 0.730113 1.17365 2.1875 1.17365 4.38636C1.17365 6.15057 2.45206 7.19886 4.49751 7.78693L6.10831 8.24716C7.48899 8.63068 8.71626 9.11648 8.71626 10.4205C8.71626 11.8523 7.33558 12.7983 5.52024 12.7983C3.96058 12.7983 2.5799 12.108 2.45206 10.625H0.815696C0.969105 12.7727 2.70774 14.2301 5.52024 14.2301C8.53729 14.2301 10.2504 12.5682 10.2504 10.446C10.2504 7.99148 7.92365 7.19886 6.56854 6.84091L5.23899 6.48295C4.2674 6.22727 2.70774 5.71591 2.70774 4.30966C2.70774 3.05682 3.85831 2.13636 5.59695 2.13636C7.18217 2.13636 8.38388 2.89062 8.53729 4.18182ZM15.5414 14.2301C17.2544 14.2301 18.1493 13.3097 18.4561 12.6705H18.5328V14H20.0414V7.53125C20.0414 4.41193 17.6635 4.05398 16.4107 4.05398C14.9277 4.05398 13.2402 4.56534 12.4732 6.35511L13.905 6.86648C14.2374 6.15057 15.0236 5.38352 16.4618 5.38352C17.8489 5.38352 18.5328 6.11861 18.5328 7.37784V7.42898C18.5328 8.15767 17.7914 8.09375 16.0016 8.32386C14.1799 8.56037 12.1919 8.96307 12.1919 11.2131C12.1919 13.1307 13.6749 14.2301 15.5414 14.2301ZM15.7715 12.875C14.5698 12.875 13.7005 12.3381 13.7005 11.2898C13.7005 10.1392 14.7488 9.78125 15.9249 9.62784C16.5641 9.55114 18.2772 9.37216 18.5328 9.06534V10.446C18.5328 11.6733 17.5613 12.875 15.7715 12.875ZM30.4716 4.18182H28.8352L26.125 12.0057H26.0227L23.3125 4.18182H21.6761L25.3068 14H26.8409L30.4716 4.18182ZM36.2276 14.2045C38.2219 14.2045 39.6793 13.2074 40.1396 11.7244L38.6822 11.3153C38.2987 12.3381 37.4102 12.8494 36.2276 12.8494C34.457 12.8494 33.2362 11.7053 33.1658 9.60227H40.293V8.96307C40.293 5.30682 38.1197 4.05398 36.0742 4.05398C33.4151 4.05398 31.6509 6.15057 31.6509 9.16761C31.6509 12.1847 33.3896 14.2045 36.2276 14.2045ZM33.1658 8.2983C33.2681 6.7706 34.3484 5.40909 36.0742 5.40909C37.7106 5.40909 38.7589 6.63636 38.7589 8.2983H33.1658Z" fill="white"/>
</svg>
