<svg width="217" height="20" viewBox="0 0 217 20" fill="none" xmlns="http://www.w3.org/2000/svg">
<path d="M5.89773 1.54545L9.47727 13.8523H9.61364L13.1932 1.54545H18.5455L12.7841 19H6.30682L0.545455 1.54545H5.89773ZM22.3487 19.2045C21.5135 19.2045 20.7749 19.0682 20.1328 18.7955C19.4964 18.517 18.9964 18.0966 18.6328 17.5341C18.2692 16.9716 18.0874 16.2557 18.0874 15.3864C18.0874 14.6705 18.2095 14.0597 18.4538 13.554C18.6982 13.0426 19.0391 12.625 19.4766 12.3011C19.9141 11.9773 20.4226 11.7301 21.0021 11.5597C21.5874 11.3892 22.218 11.2784 22.8942 11.2273C23.6271 11.1705 24.2152 11.1023 24.6584 11.0227C25.1072 10.9375 25.4311 10.821 25.63 10.6733C25.8288 10.5199 25.9283 10.3182 25.9283 10.0682V10.0341C25.9283 9.69318 25.7976 9.43182 25.5362 9.25C25.2749 9.06818 24.9396 8.97727 24.5305 8.97727C24.0817 8.97727 23.7152 9.0767 23.4311 9.27557C23.1527 9.46875 22.9851 9.76705 22.9283 10.1705H18.5987C18.6555 9.375 18.9084 8.64205 19.3572 7.97159C19.8118 7.29545 20.4737 6.75568 21.343 6.35227C22.2124 5.94318 23.2976 5.73864 24.5987 5.73864C25.5362 5.73864 26.3771 5.84943 27.1214 6.07102C27.8658 6.28693 28.4993 6.59091 29.022 6.98295C29.5447 7.36932 29.9425 7.82386 30.2152 8.34659C30.4936 8.86364 30.6328 9.42614 30.6328 10.0341V19H26.2351V17.1591H26.1328C25.8714 17.6477 25.5533 18.0426 25.1783 18.3438C24.8089 18.6449 24.3857 18.8636 23.9084 19C23.4368 19.1364 22.9169 19.2045 22.3487 19.2045ZM23.8828 16.2386C24.2408 16.2386 24.576 16.1648 24.8885 16.017C25.2067 15.8693 25.4652 15.6562 25.6641 15.3778C25.8629 15.0994 25.9624 14.7614 25.9624 14.3636V13.2727C25.8374 13.3239 25.7038 13.3722 25.5618 13.4176C25.4254 13.4631 25.2777 13.5057 25.1186 13.5455C24.9652 13.5852 24.8004 13.6222 24.6243 13.6562C24.4538 13.6903 24.2749 13.7216 24.0874 13.75C23.7237 13.8068 23.4254 13.9006 23.1925 14.0312C22.9652 14.1562 22.7947 14.3125 22.6811 14.5C22.5732 14.6818 22.5192 14.8864 22.5192 15.1136C22.5192 15.4773 22.647 15.7557 22.9027 15.9489C23.1584 16.142 23.4851 16.2386 23.8828 16.2386ZM37.5852 11.6364V19H32.8807V5.90909H37.3466V8.39773H37.483C37.767 7.56818 38.267 6.91761 38.983 6.44602C39.7045 5.97443 40.5455 5.73864 41.5057 5.73864C42.4318 5.73864 43.2358 5.9517 43.9176 6.37784C44.6051 6.7983 45.1364 7.37784 45.5114 8.11648C45.892 8.85511 46.0795 9.69886 46.0739 10.6477V19H41.3693V11.6364C41.375 10.9886 41.2102 10.4801 40.875 10.1108C40.5455 9.74148 40.0852 9.55682 39.4943 9.55682C39.108 9.55682 38.7699 9.64205 38.4801 9.8125C38.196 9.97727 37.9773 10.2159 37.8239 10.5284C37.6705 10.8352 37.5909 11.2045 37.5852 11.6364ZM54.7031 19.2386C53.2827 19.2386 52.0668 18.9574 51.0554 18.3949C50.044 17.8267 49.2685 17.0369 48.7287 16.0256C48.1889 15.0085 47.919 13.8295 47.919 12.4886C47.919 11.1477 48.1889 9.97159 48.7287 8.96023C49.2685 7.94318 50.044 7.15341 51.0554 6.59091C52.0668 6.02273 53.2827 5.73864 54.7031 5.73864C56.1236 5.73864 57.3395 6.02273 58.3509 6.59091C59.3622 7.15341 60.1378 7.94318 60.6776 8.96023C61.2173 9.97159 61.4872 11.1477 61.4872 12.4886C61.4872 13.8295 61.2173 15.0085 60.6776 16.0256C60.1378 17.0369 59.3622 17.8267 58.3509 18.3949C57.3395 18.9574 56.1236 19.2386 54.7031 19.2386ZM54.7372 15.7614C55.1349 15.7614 55.4787 15.6278 55.7685 15.3608C56.0582 15.0937 56.2827 14.7131 56.4418 14.2188C56.6009 13.7244 56.6804 13.1364 56.6804 12.4545C56.6804 11.767 56.6009 11.179 56.4418 10.6903C56.2827 10.196 56.0582 9.81534 55.7685 9.5483C55.4787 9.28125 55.1349 9.14773 54.7372 9.14773C54.3168 9.14773 53.956 9.28125 53.6548 9.5483C53.3537 9.81534 53.1236 10.196 52.9645 10.6903C52.8054 11.179 52.7259 11.767 52.7259 12.4545C52.7259 13.1364 52.8054 13.7244 52.9645 14.2188C53.1236 14.7131 53.3537 15.0937 53.6548 15.3608C53.956 15.6278 54.3168 15.7614 54.7372 15.7614ZM63.3963 19V5.90909H68.1009V19H63.3963ZM65.7486 4.54545C65.1122 4.54545 64.5668 4.33523 64.1122 3.91477C63.6577 3.49432 63.4304 2.98864 63.4304 2.39773C63.4304 1.80682 63.6577 1.30114 64.1122 0.880681C64.5668 0.460227 65.1122 0.25 65.7486 0.25C66.3906 0.25 66.9361 0.460227 67.3849 0.880681C67.8395 1.30114 68.0668 1.80682 68.0668 2.39773C68.0668 2.98864 67.8395 3.49432 67.3849 3.91477C66.9361 4.33523 66.3906 4.54545 65.7486 4.54545ZM82.4638 10.1705H78.1342C78.1115 9.90341 78.0178 9.6733 77.853 9.48011C77.6882 9.28693 77.4751 9.1392 77.2138 9.03693C76.9581 8.92898 76.674 8.875 76.3615 8.875C75.9581 8.875 75.6115 8.94886 75.3217 9.09659C75.032 9.24432 74.8899 9.45455 74.8956 9.72727C74.8899 9.92045 74.9723 10.0994 75.1428 10.2642C75.3189 10.429 75.657 10.5568 76.157 10.6477L78.8161 11.125C80.157 11.3693 81.1541 11.7812 81.8075 12.3608C82.4666 12.9347 82.799 13.7045 82.8047 14.6705C82.799 15.6023 82.5206 16.4119 81.9695 17.0994C81.424 17.7812 80.6768 18.3097 79.728 18.6847C78.7848 19.054 77.7081 19.2386 76.4979 19.2386C74.4979 19.2386 72.9325 18.8295 71.8018 18.0114C70.6768 17.1932 70.049 16.1136 69.9183 14.7727H74.5888C74.6513 15.1875 74.8558 15.5085 75.2024 15.7358C75.5547 15.9574 75.9979 16.0682 76.532 16.0682C76.9638 16.0682 77.3189 15.9943 77.5973 15.8466C77.8814 15.6989 78.0263 15.4886 78.032 15.2159C78.0263 14.9659 77.9013 14.767 77.657 14.6193C77.4183 14.4716 77.0433 14.3523 76.532 14.2614L74.2138 13.8523C72.8786 13.6193 71.8786 13.1761 71.2138 12.5227C70.549 11.8693 70.2195 11.0284 70.2251 10C70.2195 9.09091 70.4581 8.32102 70.9411 7.69034C71.4297 7.05398 72.1257 6.57102 73.0291 6.24148C73.9382 5.90625 75.0149 5.73864 76.2592 5.73864C78.1513 5.73864 79.6428 6.13068 80.7337 6.91477C81.8303 7.69886 82.407 8.78409 82.4638 10.1705ZM90.88 19.2386C89.4822 19.2386 88.2777 18.9716 87.2663 18.4375C86.2607 17.8977 85.4851 17.125 84.9396 16.1193C84.3999 15.108 84.13 13.8977 84.13 12.4886C84.13 11.1364 84.4027 9.95455 84.9482 8.94318C85.4936 7.93182 86.2635 7.14489 87.2578 6.58239C88.2521 6.01989 89.4254 5.73864 90.7777 5.73864C91.7663 5.73864 92.6612 5.89205 93.4624 6.19886C94.2635 6.50568 94.9482 6.9517 95.5163 7.53693C96.0845 8.11648 96.522 8.82102 96.8288 9.65057C97.1357 10.4801 97.2891 11.4148 97.2891 12.4545V13.5455H85.5959V10.9545H92.9595C92.9538 10.5795 92.8572 10.25 92.6697 9.96591C92.4879 9.67614 92.2408 9.4517 91.9283 9.29261C91.6214 9.12784 91.272 9.04545 90.88 9.04545C90.4993 9.04545 90.1499 9.12784 89.8317 9.29261C89.5135 9.4517 89.2578 9.6733 89.0646 9.95739C88.8771 10.2415 88.7777 10.5739 88.7663 10.9545V13.75C88.7663 14.1705 88.8544 14.5455 89.0305 14.875C89.2067 15.2045 89.4595 15.4631 89.7891 15.6506C90.1186 15.8381 90.5163 15.9318 90.9822 15.9318C91.3061 15.9318 91.6016 15.8864 91.8686 15.7955C92.1413 15.7045 92.3743 15.5739 92.5675 15.4034C92.7607 15.2273 92.9027 15.017 92.9936 14.7727H97.2891C97.1413 15.6818 96.7919 16.4716 96.2408 17.142C95.6896 17.8068 94.9595 18.3239 94.0504 18.6932C93.147 19.0568 92.0902 19.2386 90.88 19.2386ZM119.024 1.54545V19H115.07L108.763 9.82955H108.661V19H103.922V1.54545H107.945L114.149 10.6818H114.286V1.54545H119.024ZM124.982 19.2045C124.146 19.2045 123.408 19.0682 122.766 18.7955C122.129 18.517 121.629 18.0966 121.266 17.5341C120.902 16.9716 120.72 16.2557 120.72 15.3864C120.72 14.6705 120.842 14.0597 121.087 13.554C121.331 13.0426 121.672 12.625 122.109 12.3011C122.547 11.9773 123.055 11.7301 123.635 11.5597C124.22 11.3892 124.851 11.2784 125.527 11.2273C126.26 11.1705 126.848 11.1023 127.291 11.0227C127.74 10.9375 128.064 10.821 128.263 10.6733C128.462 10.5199 128.561 10.3182 128.561 10.0682V10.0341C128.561 9.69318 128.43 9.43182 128.169 9.25C127.908 9.06818 127.572 8.97727 127.163 8.97727C126.714 8.97727 126.348 9.0767 126.064 9.27557C125.786 9.46875 125.618 9.76705 125.561 10.1705H121.232C121.288 9.375 121.541 8.64205 121.99 7.97159C122.445 7.29545 123.107 6.75568 123.976 6.35227C124.845 5.94318 125.93 5.73864 127.232 5.73864C128.169 5.73864 129.01 5.84943 129.754 6.07102C130.499 6.28693 131.132 6.59091 131.655 6.98295C132.178 7.36932 132.575 7.82386 132.848 8.34659C133.126 8.86364 133.266 9.42614 133.266 10.0341V19H128.868V17.1591H128.766C128.504 17.6477 128.186 18.0426 127.811 18.3438C127.442 18.6449 127.018 18.8636 126.541 19C126.07 19.1364 125.55 19.2045 124.982 19.2045ZM126.516 16.2386C126.874 16.2386 127.209 16.1648 127.521 16.017C127.839 15.8693 128.098 15.6562 128.297 15.3778C128.496 15.0994 128.595 14.7614 128.595 14.3636V13.2727C128.47 13.3239 128.337 13.3722 128.195 13.4176C128.058 13.4631 127.911 13.5057 127.751 13.5455C127.598 13.5852 127.433 13.6222 127.257 13.6562C127.087 13.6903 126.908 13.7216 126.72 13.75C126.357 13.8068 126.058 13.9006 125.825 14.0312C125.598 14.1562 125.428 14.3125 125.314 14.5C125.206 14.6818 125.152 14.8864 125.152 15.1136C125.152 15.4773 125.28 15.7557 125.536 15.9489C125.791 16.142 126.118 16.2386 126.516 16.2386ZM143.32 5.90909V9.31818H134.695V5.90909H143.32ZM136.366 2.77273H141.07V14.7898C141.07 14.9716 141.102 15.125 141.164 15.25C141.227 15.3693 141.323 15.4602 141.454 15.5227C141.585 15.5795 141.752 15.608 141.957 15.608C142.099 15.608 142.263 15.5909 142.451 15.5568C142.644 15.5227 142.786 15.4943 142.877 15.4716L143.559 18.7784C143.349 18.8409 143.048 18.9176 142.656 19.0085C142.269 19.0994 141.809 19.1591 141.275 19.1875C140.195 19.2443 139.289 19.1335 138.556 18.8551C137.823 18.571 137.272 18.125 136.903 17.517C136.533 16.9091 136.354 16.1477 136.366 15.233V2.77273ZM145.24 19V5.90909H149.945V19H145.24ZM147.592 4.54545C146.956 4.54545 146.411 4.33523 145.956 3.91477C145.501 3.49432 145.274 2.98864 145.274 2.39773C145.274 1.80682 145.501 1.30114 145.956 0.880681C146.411 0.460227 146.956 0.25 147.592 0.25C148.234 0.25 148.78 0.460227 149.229 0.880681C149.683 1.30114 149.911 1.80682 149.911 2.39773C149.911 2.98864 149.683 3.49432 149.229 3.91477C148.78 4.33523 148.234 4.54545 147.592 4.54545ZM158.648 19.2386C157.228 19.2386 156.012 18.9574 155.001 18.3949C153.989 17.8267 153.214 17.0369 152.674 16.0256C152.134 15.0085 151.864 13.8295 151.864 12.4886C151.864 11.1477 152.134 9.97159 152.674 8.96023C153.214 7.94318 153.989 7.15341 155.001 6.59091C156.012 6.02273 157.228 5.73864 158.648 5.73864C160.069 5.73864 161.285 6.02273 162.296 6.59091C163.308 7.15341 164.083 7.94318 164.623 8.96023C165.163 9.97159 165.433 11.1477 165.433 12.4886C165.433 13.8295 165.163 15.0085 164.623 16.0256C164.083 17.0369 163.308 17.8267 162.296 18.3949C161.285 18.9574 160.069 19.2386 158.648 19.2386ZM158.683 15.7614C159.08 15.7614 159.424 15.6278 159.714 15.3608C160.004 15.0937 160.228 14.7131 160.387 14.2188C160.546 13.7244 160.626 13.1364 160.626 12.4545C160.626 11.767 160.546 11.179 160.387 10.6903C160.228 10.196 160.004 9.81534 159.714 9.5483C159.424 9.28125 159.08 9.14773 158.683 9.14773C158.262 9.14773 157.901 9.28125 157.6 9.5483C157.299 9.81534 157.069 10.196 156.91 10.6903C156.751 11.179 156.671 11.767 156.671 12.4545C156.671 13.1364 156.751 13.7244 156.91 14.2188C157.069 14.7131 157.299 15.0937 157.6 15.3608C157.901 15.6278 158.262 15.7614 158.683 15.7614ZM172.046 11.6364V19H167.342V5.90909H171.808V8.39773H171.944C172.228 7.56818 172.728 6.91761 173.444 6.44602C174.165 5.97443 175.006 5.73864 175.967 5.73864C176.893 5.73864 177.697 5.9517 178.379 6.37784C179.066 6.7983 179.597 7.37784 179.972 8.11648C180.353 8.85511 180.54 9.69886 180.535 10.6477V19H175.83V11.6364C175.836 10.9886 175.671 10.4801 175.336 10.1108C175.006 9.74148 174.546 9.55682 173.955 9.55682C173.569 9.55682 173.231 9.64205 172.941 9.8125C172.657 9.97727 172.438 10.2159 172.285 10.5284C172.131 10.8352 172.052 11.2045 172.046 11.6364ZM186.505 19.2045C185.67 19.2045 184.931 19.0682 184.289 18.7955C183.653 18.517 183.153 18.0966 182.789 17.5341C182.425 16.9716 182.244 16.2557 182.244 15.3864C182.244 14.6705 182.366 14.0597 182.61 13.554C182.854 13.0426 183.195 12.625 183.633 12.3011C184.07 11.9773 184.579 11.7301 185.158 11.5597C185.744 11.3892 186.374 11.2784 187.05 11.2273C187.783 11.1705 188.371 11.1023 188.815 11.0227C189.263 10.9375 189.587 10.821 189.786 10.6733C189.985 10.5199 190.085 10.3182 190.085 10.0682V10.0341C190.085 9.69318 189.954 9.43182 189.692 9.25C189.431 9.06818 189.096 8.97727 188.687 8.97727C188.238 8.97727 187.871 9.0767 187.587 9.27557C187.309 9.46875 187.141 9.76705 187.085 10.1705H182.755C182.812 9.375 183.065 8.64205 183.513 7.97159C183.968 7.29545 184.63 6.75568 185.499 6.35227C186.369 5.94318 187.454 5.73864 188.755 5.73864C189.692 5.73864 190.533 5.84943 191.278 6.07102C192.022 6.28693 192.656 6.59091 193.178 6.98295C193.701 7.36932 194.099 7.82386 194.371 8.34659C194.65 8.86364 194.789 9.42614 194.789 10.0341V19H190.391V17.1591H190.289C190.028 17.6477 189.71 18.0426 189.335 18.3438C188.965 18.6449 188.542 18.8636 188.065 19C187.593 19.1364 187.073 19.2045 186.505 19.2045ZM188.039 16.2386C188.397 16.2386 188.732 16.1648 189.045 16.017C189.363 15.8693 189.621 15.6562 189.82 15.3778C190.019 15.0994 190.119 14.7614 190.119 14.3636V13.2727C189.994 13.3239 189.86 13.3722 189.718 13.4176C189.582 13.4631 189.434 13.5057 189.275 13.5455C189.121 13.5852 188.957 13.6222 188.781 13.6562C188.61 13.6903 188.431 13.7216 188.244 13.75C187.88 13.8068 187.582 13.9006 187.349 14.0312C187.121 14.1562 186.951 14.3125 186.837 14.5C186.729 14.6818 186.675 14.8864 186.675 15.1136C186.675 15.4773 186.803 15.7557 187.059 15.9489C187.315 16.142 187.641 16.2386 188.039 16.2386ZM199.594 19.2727C198.935 19.2727 198.369 19.0426 197.898 18.5824C197.432 18.1165 197.202 17.5511 197.207 16.8864C197.202 16.2386 197.432 15.6847 197.898 15.2244C198.369 14.7642 198.935 14.5341 199.594 14.5341C200.219 14.5341 200.77 14.7642 201.247 15.2244C201.73 15.6847 201.974 16.2386 201.98 16.8864C201.974 17.3295 201.858 17.733 201.631 18.0966C201.409 18.4545 201.119 18.7415 200.761 18.9574C200.403 19.1676 200.014 19.2727 199.594 19.2727ZM207.094 19.2727C206.435 19.2727 205.869 19.0426 205.398 18.5824C204.932 18.1165 204.702 17.5511 204.707 16.8864C204.702 16.2386 204.932 15.6847 205.398 15.2244C205.869 14.7642 206.435 14.5341 207.094 14.5341C207.719 14.5341 208.27 14.7642 208.747 15.2244C209.23 15.6847 209.474 16.2386 209.48 16.8864C209.474 17.3295 209.358 17.733 209.131 18.0966C208.909 18.4545 208.619 18.7415 208.261 18.9574C207.903 19.1676 207.514 19.2727 207.094 19.2727ZM214.594 19.2727C213.935 19.2727 213.369 19.0426 212.898 18.5824C212.432 18.1165 212.202 17.5511 212.207 16.8864C212.202 16.2386 212.432 15.6847 212.898 15.2244C213.369 14.7642 213.935 14.5341 214.594 14.5341C215.219 14.5341 215.77 14.7642 216.247 15.2244C216.73 15.6847 216.974 16.2386 216.98 16.8864C216.974 17.3295 216.858 17.733 216.631 18.0966C216.409 18.4545 216.119 18.7415 215.761 18.9574C215.403 19.1676 215.014 19.2727 214.594 19.2727Z" fill="black"/>
</svg>
