<svg width="161" height="12" viewBox="0 0 161 12" fill="none" xmlns="http://www.w3.org/2000/svg">
<path d="M2.5 5.90909C2.5 5.36553 2.63258 4.87003 2.89773 4.42259C3.16288 3.97514 3.51918 3.61884 3.96662 3.35369C4.41406 3.08854 4.90956 2.95597 5.45312 2.95597C5.92377 2.95597 6.35795 3.05705 6.75568 3.25923C7.15672 3.46141 7.48816 3.73816 7.75 4.08949C8.01184 4.4375 8.17424 4.83191 8.23722 5.27273H7.03409C6.9678 4.93134 6.78385 4.65294 6.48224 4.4375C6.18063 4.21875 5.83759 4.10938 5.45312 4.10938C5.12169 4.10938 4.82008 4.19058 4.5483 4.35298C4.27652 4.51539 4.05942 4.73248 3.89702 5.00426C3.73461 5.27604 3.65341 5.57765 3.65341 5.90909C3.65341 6.24053 3.73461 6.54214 3.89702 6.81392C4.05942 7.0857 4.27652 7.30279 4.5483 7.4652C4.82008 7.6276 5.12169 7.70881 5.45312 7.70881C5.83759 7.70881 6.16241 7.60109 6.42756 7.38565C6.69602 7.1669 6.86506 6.88684 6.93466 6.54545H8.13778C8.07481 6.98627 7.92069 7.38234 7.67543 7.73366C7.43016 8.08168 7.11529 8.35677 6.73082 8.55895C6.34967 8.76113 5.92377 8.86222 5.45312 8.86222C4.90956 8.86222 4.41406 8.72964 3.96662 8.46449C3.51918 8.19934 3.16288 7.84304 2.89773 7.3956C2.63258 6.94815 2.5 6.45265 2.5 5.90909ZM5.40341 11.1591C4.68087 11.1591 4.00142 11.0232 3.36506 10.7514C2.73201 10.4796 2.17353 10.1035 1.68963 9.62287C1.20904 9.13897 0.831203 8.58049 0.556108 7.94744C0.284328 7.31439 0.150095 6.63494 0.153409 5.90909C0.156723 5.18324 0.294271 4.50379 0.566051 3.87074C0.841146 3.23769 1.21899 2.68087 1.69957 2.20028C2.18016 1.71638 2.73698 1.33854 3.37003 1.06676C4.00308 0.794981 4.68087 0.659091 5.40341 0.659091C6.12926 0.659091 6.80871 0.794981 7.44176 1.06676C8.07813 1.33854 8.63494 1.71638 9.11222 2.20028C9.5928 2.68087 9.96899 3.23769 10.2408 3.87074C10.5125 4.50379 10.6501 5.18324 10.6534 5.90909C10.6567 6.63494 10.5225 7.31439 10.2507 7.94744C9.97893 8.58049 9.60275 9.13897 9.12216 9.62287C8.64157 10.1035 8.0831 10.4796 7.44673 10.7514C6.81037 11.0232 6.12926 11.1591 5.40341 11.1591ZM5.40341 10.0057C5.97017 10.0057 6.50213 9.89962 6.99929 9.6875C7.49645 9.47538 7.93229 9.18205 8.30682 8.80753C8.68134 8.433 8.97467 7.99882 9.18679 7.50497C9.39891 7.00781 9.50331 6.47751 9.5 5.91406C9.49669 5.3473 9.38897 4.81534 9.17685 4.31818C8.96473 3.82102 8.6714 3.38518 8.29688 3.01065C7.92235 2.63613 7.48816 2.3428 6.99432 2.13068C6.50047 1.91856 5.97017 1.8125 5.40341 1.8125C4.83996 1.8125 4.31132 1.91856 3.81747 2.13068C3.32363 2.3428 2.88944 2.63778 2.51491 3.01562C2.14039 3.39015 1.84541 3.82599 1.62997 4.32315C1.41785 4.817 1.31013 5.3473 1.30682 5.91406C1.3035 6.47419 1.40791 7.00284 1.62003 7.5C1.83215 7.99384 2.12547 8.42803 2.5 8.80256C2.87784 9.17708 3.31368 9.47206 3.80753 9.6875C4.30469 9.89962 4.83665 10.0057 5.40341 10.0057ZM16.802 11V10.1051L20.1628 6.42614C20.5572 5.99526 20.882 5.62074 21.1373 5.30256C21.3925 4.98106 21.5814 4.67945 21.704 4.39773C21.83 4.11269 21.8929 3.81439 21.8929 3.50284C21.8929 3.14489 21.8068 2.83499 21.6344 2.57315C21.4654 2.31132 21.2334 2.10914 20.9384 1.96662C20.6434 1.8241 20.312 1.75284 19.9441 1.75284C19.553 1.75284 19.2116 1.83404 18.9199 1.99645C18.6316 2.15554 18.4078 2.37926 18.2488 2.66761C18.093 2.95597 18.0151 3.29403 18.0151 3.68182H16.8418C16.8418 3.08523 16.9793 2.56155 17.2544 2.1108C17.5295 1.66004 17.9041 1.30871 18.378 1.05682C18.8553 0.804924 19.3906 0.678977 19.9838 0.678977C20.5804 0.678977 21.1091 0.804924 21.5698 1.05682C22.0305 1.30871 22.3917 1.64844 22.6536 2.07599C22.9154 2.50355 23.0463 2.97917 23.0463 3.50284C23.0463 3.87737 22.9784 4.24361 22.8425 4.60156C22.7099 4.9562 22.4779 5.35227 22.1465 5.78977C21.8184 6.22396 21.3626 6.75426 20.7793 7.38068L18.4924 9.8267V9.90625H23.2253V11H16.802ZM28.5996 11.1392C27.8506 11.1392 27.2125 10.9354 26.6855 10.5277C26.1586 10.1167 25.7559 9.52178 25.4775 8.7429C25.199 7.9607 25.0598 7.0161 25.0598 5.90909C25.0598 4.80871 25.199 3.86908 25.4775 3.0902C25.7592 2.308 26.1635 1.71141 26.6905 1.30043C27.2208 0.886126 27.8572 0.678977 28.5996 0.678977C29.342 0.678977 29.9767 0.886126 30.5037 1.30043C31.034 1.71141 31.4384 2.308 31.7168 3.0902C31.9985 3.86908 32.1394 4.80871 32.1394 5.90909C32.1394 7.0161 32.0002 7.9607 31.7218 8.7429C31.4434 9.52178 31.0407 10.1167 30.5137 10.5277C29.9867 10.9354 29.3487 11.1392 28.5996 11.1392ZM28.5996 10.0455C29.342 10.0455 29.9187 9.6875 30.3297 8.97159C30.7407 8.25568 30.9462 7.23485 30.9462 5.90909C30.9462 5.02746 30.8517 4.27675 30.6628 3.65696C30.4772 3.03717 30.2087 2.56487 29.8574 2.24006C29.5094 1.91525 29.0901 1.75284 28.5996 1.75284C27.8638 1.75284 27.2888 2.11577 26.8745 2.84162C26.4602 3.56416 26.253 4.58665 26.253 5.90909C26.253 6.79072 26.3458 7.53977 26.5314 8.15625C26.717 8.77273 26.9838 9.24171 27.3319 9.56321C27.6832 9.88471 28.1058 10.0455 28.5996 10.0455ZM34.0286 11V10.1051L37.3894 6.42614C37.7838 5.99526 38.1086 5.62074 38.3638 5.30256C38.619 4.98106 38.8079 4.67945 38.9306 4.39773C39.0565 4.11269 39.1195 3.81439 39.1195 3.50284C39.1195 3.14489 39.0333 2.83499 38.861 2.57315C38.6919 2.31132 38.4599 2.10914 38.165 1.96662C37.87 1.8241 37.5385 1.75284 37.1706 1.75284C36.7795 1.75284 36.4382 1.83404 36.1465 1.99645C35.8581 2.15554 35.6344 2.37926 35.4753 2.66761C35.3195 2.95597 35.2417 3.29403 35.2417 3.68182H34.0684C34.0684 3.08523 34.2059 2.56155 34.481 2.1108C34.7561 1.66004 35.1306 1.30871 35.6046 1.05682C36.0819 0.804924 36.6171 0.678977 37.2104 0.678977C37.807 0.678977 38.3356 0.804924 38.7963 1.05682C39.257 1.30871 39.6183 1.64844 39.8801 2.07599C40.142 2.50355 40.2729 2.97917 40.2729 3.50284C40.2729 3.87737 40.205 4.24361 40.0691 4.60156C39.9365 4.9562 39.7045 5.35227 39.373 5.78977C39.0449 6.22396 38.5892 6.75426 38.0059 7.38068L35.7189 9.8267V9.90625H40.4519V11H34.0286ZM42.5051 11V10.1051L45.8659 6.42614C46.2604 5.99526 46.5852 5.62074 46.8404 5.30256C47.0956 4.98106 47.2845 4.67945 47.4071 4.39773C47.5331 4.11269 47.5961 3.81439 47.5961 3.50284C47.5961 3.14489 47.5099 2.83499 47.3375 2.57315C47.1685 2.31132 46.9365 2.10914 46.6415 1.96662C46.3465 1.8241 46.0151 1.75284 45.6472 1.75284C45.2561 1.75284 44.9147 1.83404 44.623 1.99645C44.3347 2.15554 44.111 2.37926 43.9519 2.66761C43.7961 2.95597 43.7182 3.29403 43.7182 3.68182H42.5449C42.5449 3.08523 42.6825 2.56155 42.9576 2.1108C43.2327 1.66004 43.6072 1.30871 44.0811 1.05682C44.5584 0.804924 45.0937 0.678977 45.687 0.678977C46.2836 0.678977 46.8122 0.804924 47.2729 1.05682C47.7336 1.30871 48.0949 1.64844 48.3567 2.07599C48.6185 2.50355 48.7495 2.97917 48.7495 3.50284C48.7495 3.87737 48.6815 4.24361 48.5456 4.60156C48.4131 4.9562 48.181 5.35227 47.8496 5.78977C47.5215 6.22396 47.0658 6.75426 46.4824 7.38068L44.1955 9.8267V9.90625H48.9284V11H42.5051ZM55.5158 11H54.2232L57.9618 0.818182H59.2346L62.9732 11H61.6806L58.638 2.42898H58.5584L55.5158 11ZM55.9931 7.02273H61.2033V8.11648H55.9931V7.02273ZM64.4 11V3.36364H65.5336V4.51705H65.6131C65.7523 4.1392 66.0042 3.83262 66.3688 3.5973C66.7334 3.36198 67.1444 3.24432 67.6017 3.24432C67.6879 3.24432 67.7956 3.24597 67.9249 3.24929C68.0542 3.2526 68.1519 3.25758 68.2182 3.2642V4.45739C68.1784 4.44744 68.0873 4.43253 67.9448 4.41264C67.8056 4.38944 67.6581 4.37784 67.5023 4.37784C67.1311 4.37784 66.7997 4.45573 66.508 4.61151C66.2196 4.76397 65.9909 4.97609 65.8219 5.24787C65.6562 5.51634 65.5733 5.82292 65.5733 6.16761V11H64.4ZM72.4789 11.1591C71.7895 11.1591 71.1846 10.995 70.6642 10.6669C70.1472 10.3388 69.7428 9.87973 69.4512 9.28977C69.1628 8.69981 69.0186 8.01042 69.0186 7.22159C69.0186 6.42614 69.1628 5.73177 69.4512 5.13849C69.7428 4.54522 70.1472 4.08452 70.6642 3.75639C71.1846 3.42827 71.7895 3.2642 72.4789 3.2642C73.1683 3.2642 73.7715 3.42827 74.2885 3.75639C74.8089 4.08452 75.2132 4.54522 75.5016 5.13849C75.7933 5.73177 75.9391 6.42614 75.9391 7.22159C75.9391 8.01042 75.7933 8.69981 75.5016 9.28977C75.2132 9.87973 74.8089 10.3388 74.2885 10.6669C73.7715 10.995 73.1683 11.1591 72.4789 11.1591ZM72.4789 10.1051C73.0025 10.1051 73.4334 9.97088 73.7715 9.70241C74.1096 9.43395 74.3598 9.08097 74.5222 8.64347C74.6846 8.20597 74.7658 7.73201 74.7658 7.22159C74.7658 6.71117 74.6846 6.23556 74.5222 5.79474C74.3598 5.35393 74.1096 4.99763 73.7715 4.72585C73.4334 4.45407 73.0025 4.31818 72.4789 4.31818C71.9552 4.31818 71.5243 4.45407 71.1863 4.72585C70.8482 4.99763 70.598 5.35393 70.4355 5.79474C70.2731 6.23556 70.1919 6.71117 70.1919 7.22159C70.1919 7.73201 70.2731 8.20597 70.4355 8.64347C70.598 9.08097 70.8482 9.43395 71.1863 9.70241C71.5243 9.97088 71.9552 10.1051 72.4789 10.1051ZM82.5426 7.87784V3.36364H83.7159V11H82.5426V9.70739H82.4631C82.2841 10.0952 82.0057 10.425 81.6278 10.6967C81.25 10.9652 80.7727 11.0994 80.196 11.0994C79.7188 11.0994 79.2945 10.995 78.9233 10.7862C78.5521 10.5741 78.2604 10.2559 78.0483 9.83168C77.8362 9.40412 77.7301 8.86553 77.7301 8.21591V3.36364H78.9034V8.13636C78.9034 8.69318 79.0592 9.13731 79.3707 9.46875C79.6856 9.80019 80.0866 9.96591 80.5739 9.96591C80.8655 9.96591 81.1622 9.89134 81.4638 9.74219C81.7687 9.59304 82.0239 9.36435 82.2294 9.05611C82.4382 8.74787 82.5426 8.35511 82.5426 7.87784ZM87.0382 6.40625V11H85.8649V3.36364H86.9984V4.55682H87.0978C87.2768 4.16903 87.5486 3.85748 87.9132 3.62216C88.2778 3.38352 88.7484 3.2642 89.3251 3.2642C89.8422 3.2642 90.2946 3.37027 90.6824 3.58239C91.0701 3.79119 91.3717 4.10938 91.5872 4.53693C91.8026 4.96117 91.9103 5.49811 91.9103 6.14773V11H90.737V6.22727C90.737 5.62737 90.5813 5.16004 90.2697 4.82528C89.9582 4.48722 89.5306 4.31818 88.987 4.31818C88.6125 4.31818 88.2778 4.39938 87.9828 4.56179C87.6911 4.72419 87.4608 4.96117 87.2917 5.27273C87.1227 5.58428 87.0382 5.96212 87.0382 6.40625ZM96.9379 11.1591C96.3015 11.1591 95.7397 10.9983 95.2525 10.6768C94.7653 10.352 94.3841 9.89465 94.109 9.30469C93.8339 8.71141 93.6964 8.01042 93.6964 7.2017C93.6964 6.39962 93.8339 5.7036 94.109 5.11364C94.3841 4.52367 94.7669 4.06794 95.2575 3.74645C95.748 3.42495 96.3147 3.2642 96.9577 3.2642C97.4549 3.2642 97.8477 3.34706 98.136 3.51278C98.4277 3.67519 98.6497 3.8608 98.8022 4.0696C98.958 4.27509 99.079 4.44413 99.1651 4.5767H99.2646V0.818182H100.438V11H99.3043V9.8267H99.1651C99.079 9.96591 98.9563 10.1416 98.7972 10.3537C98.6381 10.5625 98.4111 10.7498 98.1161 10.9155C97.8211 11.0779 97.4284 11.1591 96.9379 11.1591ZM97.0969 10.1051C97.5676 10.1051 97.9653 9.98248 98.2901 9.73722C98.6149 9.48864 98.8619 9.1456 99.0309 8.7081C99.1999 8.26728 99.2844 7.75852 99.2844 7.18182C99.2844 6.61174 99.2016 6.11293 99.0359 5.68537C98.8701 5.2545 98.6249 4.91974 98.3001 4.68111C97.9753 4.43916 97.5742 4.31818 97.0969 4.31818C96.5998 4.31818 96.1855 4.44579 95.854 4.70099C95.5259 4.95289 95.279 5.29593 95.1133 5.73011C94.9509 6.16098 94.8697 6.64489 94.8697 7.18182C94.8697 7.72538 94.9525 8.21922 95.1183 8.66335C95.2873 9.10417 95.5359 9.45549 95.864 9.71733C96.1954 9.97585 96.6064 10.1051 97.0969 10.1051ZM106.289 1.91193V0.818182H113.926V1.91193H110.724V11H109.491V1.91193H106.289ZM116.843 6.40625V11H115.67V0.818182H116.843V4.55682H116.942C117.121 4.16241 117.39 3.84919 117.748 3.61719C118.109 3.38187 118.59 3.2642 119.189 3.2642C119.71 3.2642 120.166 3.36861 120.557 3.57741C120.948 3.78291 121.251 4.09943 121.466 4.52699C121.685 4.95123 121.795 5.49148 121.795 6.14773V11H120.621V6.22727C120.621 5.62074 120.464 5.15175 120.149 4.82031C119.837 4.48556 119.405 4.31818 118.851 4.31818C118.467 4.31818 118.122 4.39938 117.817 4.56179C117.516 4.72419 117.277 4.96117 117.101 5.27273C116.929 5.58428 116.843 5.96212 116.843 6.40625ZM127.143 11.1591C126.407 11.1591 125.772 10.9967 125.239 10.6719C124.708 10.3438 124.299 9.88636 124.011 9.29972C123.726 8.70975 123.583 8.02367 123.583 7.24148C123.583 6.45928 123.726 5.76989 124.011 5.1733C124.299 4.57339 124.7 4.10606 125.214 3.77131C125.731 3.43324 126.334 3.2642 127.023 3.2642C127.421 3.2642 127.814 3.33049 128.202 3.46307C128.589 3.59564 128.942 3.81108 129.261 4.10938C129.579 4.40436 129.832 4.79545 130.021 5.28267C130.21 5.76989 130.305 6.36979 130.305 7.08239V7.57955H124.418V6.56534H129.112C129.112 6.13447 129.025 5.75 128.853 5.41193C128.684 5.07386 128.442 4.80705 128.127 4.61151C127.816 4.41596 127.448 4.31818 127.023 4.31818C126.556 4.31818 126.152 4.43419 125.81 4.66619C125.472 4.89489 125.212 5.19318 125.03 5.56108C124.848 5.92898 124.756 6.32339 124.756 6.74432V7.42045C124.756 7.99716 124.856 8.48603 125.055 8.88707C125.257 9.2848 125.537 9.58807 125.895 9.79688C126.253 10.0024 126.669 10.1051 127.143 10.1051C127.451 10.1051 127.729 10.062 127.978 9.97585C128.23 9.88636 128.447 9.75379 128.629 9.57812C128.812 9.39915 128.952 9.17708 129.052 8.91193L130.185 9.23011C130.066 9.61458 129.866 9.95265 129.584 10.2443C129.302 10.5327 128.954 10.758 128.54 10.9205C128.125 11.0795 127.66 11.1591 127.143 11.1591ZM142.868 0.818182H144.101V7.55966C144.101 8.25568 143.937 8.87713 143.609 9.42401C143.284 9.96757 142.825 10.3968 142.232 10.7116C141.638 11.0232 140.942 11.179 140.143 11.179C139.345 11.179 138.649 11.0232 138.055 10.7116C137.462 10.3968 137.001 9.96757 136.673 9.42401C136.348 8.87713 136.186 8.25568 136.186 7.55966V0.818182H137.419V7.46023C137.419 7.95739 137.528 8.39986 137.747 8.78764C137.966 9.17211 138.277 9.47538 138.682 9.69744C139.089 9.91619 139.577 10.0256 140.143 10.0256C140.71 10.0256 141.197 9.91619 141.605 9.69744C142.013 9.47538 142.324 9.17211 142.54 8.78764C142.759 8.39986 142.868 7.95739 142.868 7.46023V0.818182ZM146.781 11.0795C146.535 11.0795 146.325 10.9917 146.149 10.8161C145.973 10.6404 145.886 10.4299 145.886 10.1847C145.886 9.93939 145.973 9.72893 146.149 9.55327C146.325 9.3776 146.535 9.28977 146.781 9.28977C147.026 9.28977 147.236 9.3776 147.412 9.55327C147.588 9.72893 147.675 9.93939 147.675 10.1847C147.675 10.3471 147.634 10.4962 147.551 10.6321C147.472 10.768 147.364 10.8774 147.228 10.9602C147.095 11.0398 146.946 11.0795 146.781 11.0795ZM155.508 3.36364C155.449 2.85985 155.207 2.46875 154.782 2.19034C154.358 1.91193 153.838 1.77273 153.221 1.77273C152.77 1.77273 152.376 1.84564 152.038 1.99148C151.703 2.13731 151.441 2.33783 151.252 2.59304C151.067 2.84825 150.974 3.13826 150.974 3.46307C150.974 3.73485 151.039 3.96851 151.168 4.16406C151.301 4.3563 151.47 4.51705 151.675 4.64631C151.881 4.77225 152.096 4.87666 152.321 4.95952C152.547 5.03906 152.754 5.10369 152.943 5.15341L153.977 5.43182C154.242 5.50142 154.537 5.59754 154.862 5.72017C155.19 5.8428 155.503 6.01018 155.801 6.2223C156.103 6.43111 156.352 6.69957 156.547 7.0277C156.743 7.35582 156.841 7.75852 156.841 8.2358C156.841 8.78598 156.696 9.28314 156.408 9.72727C156.123 10.1714 155.705 10.5244 155.155 10.7862C154.608 11.0481 153.944 11.179 153.162 11.179C152.432 11.179 151.801 11.0613 151.267 10.826C150.737 10.5907 150.319 10.2625 150.015 9.84162C149.713 9.42069 149.542 8.93182 149.502 8.375H150.775C150.808 8.75947 150.938 9.07765 151.163 9.32955C151.392 9.57812 151.68 9.76373 152.028 9.88636C152.379 10.0057 152.757 10.0653 153.162 10.0653C153.632 10.0653 154.055 9.98911 154.429 9.83665C154.804 9.68087 155.1 9.46544 155.319 9.19034C155.538 8.91193 155.647 8.58712 155.647 8.21591C155.647 7.87784 155.553 7.60275 155.364 7.39062C155.175 7.1785 154.926 7.00616 154.618 6.87358C154.31 6.741 153.977 6.625 153.619 6.52557L152.366 6.16761C151.571 5.93892 150.941 5.61245 150.477 5.18821C150.013 4.76397 149.781 4.20881 149.781 3.52273C149.781 2.95265 149.935 2.45549 150.243 2.03125C150.555 1.60369 150.972 1.27225 151.496 1.03693C152.023 0.798295 152.611 0.678977 153.261 0.678977C153.917 0.678977 154.501 0.796638 155.011 1.03196C155.521 1.26397 155.926 1.58215 156.224 1.98651C156.526 2.39086 156.685 2.8499 156.701 3.36364H155.508ZM159.564 11.0795C159.318 11.0795 159.108 10.9917 158.932 10.8161C158.757 10.6404 158.669 10.4299 158.669 10.1847C158.669 9.93939 158.757 9.72893 158.932 9.55327C159.108 9.3776 159.318 9.28977 159.564 9.28977C159.809 9.28977 160.019 9.3776 160.195 9.55327C160.371 9.72893 160.459 9.93939 160.459 10.1847C160.459 10.3471 160.417 10.4962 160.334 10.6321C160.255 10.768 160.147 10.8774 160.011 10.9602C159.879 11.0398 159.729 11.0795 159.564 11.0795Z" fill="#545454"/>
</svg>
