<svg width="369" height="40" viewBox="0 0 369 40" fill="none" xmlns="http://www.w3.org/2000/svg">
<path d="M14.228 0.454545H18.8217V22.1108C18.8217 24.0696 18.4339 25.745 17.6584 27.1371C16.8928 28.5291 15.8139 29.593 14.4219 30.3288C13.0298 31.0547 11.3991 31.4176 9.52983 31.4176C7.80966 31.4176 6.26349 31.1044 4.89134 30.478C3.52912 29.8516 2.45028 28.9418 1.65483 27.7486C0.869318 26.5455 0.476562 25.0838 0.476562 23.3636H5.0554C5.0554 24.2088 5.24929 24.9396 5.63707 25.5561C6.0348 26.1726 6.5767 26.6548 7.26278 27.0028C7.95881 27.3409 8.75426 27.5099 9.64915 27.5099C10.6236 27.5099 11.4489 27.3061 12.125 26.8984C12.8111 26.4808 13.3331 25.8693 13.6911 25.0639C14.049 24.2585 14.228 23.2741 14.228 22.1108V0.454545ZM31.8386 31.5071C30.3869 31.5071 29.0744 31.2386 27.9011 30.7017C26.7278 30.1548 25.7981 29.3643 25.112 28.3303C24.4359 27.2962 24.0978 26.0284 24.0978 24.527C24.0978 23.2344 24.3464 22.1705 24.8436 21.3352C25.3407 20.5 26.0119 19.8388 26.8571 19.3516C27.7022 18.8643 28.6468 18.4964 29.6909 18.2479C30.7349 17.9993 31.7988 17.8104 32.8826 17.6811C34.2548 17.522 35.3684 17.3928 36.2235 17.2933C37.0787 17.1839 37.7001 17.0099 38.0879 16.7713C38.4757 16.5327 38.6696 16.1449 38.6696 15.608V15.5036C38.6696 14.201 38.3017 13.1918 37.5659 12.4759C36.84 11.7599 35.7562 11.402 34.3145 11.402C32.813 11.402 31.6298 11.7351 30.7647 12.4013C29.9096 13.0575 29.318 13.7884 28.9899 14.5938L24.7988 13.6392C25.296 12.2472 26.0218 11.1236 26.9764 10.2685C27.9409 9.40341 29.0495 8.77699 30.3024 8.3892C31.5552 7.99148 32.8727 7.79261 34.2548 7.79261C35.1696 7.79261 36.139 7.90199 37.1632 8.12074C38.1973 8.32955 39.1618 8.71733 40.0566 9.28409C40.9615 9.85085 41.7022 10.6612 42.2789 11.7152C42.8556 12.7592 43.144 14.1165 43.144 15.7869V31H38.7889V27.8679H38.6099C38.3216 28.4446 37.889 29.0114 37.3123 29.5682C36.7356 30.125 35.9949 30.5874 35.09 30.9553C34.1852 31.3232 33.1014 31.5071 31.8386 31.5071ZM32.8081 27.9276C34.041 27.9276 35.095 27.6839 35.97 27.1967C36.8549 26.7095 37.5261 26.0732 37.9835 25.2876C38.4508 24.4922 38.6845 23.642 38.6845 22.7372V19.7841C38.5254 19.9432 38.2172 20.0923 37.7598 20.2315C37.3123 20.3608 36.8002 20.4751 36.2235 20.5746C35.6468 20.6641 35.0851 20.7486 34.5382 20.8281C33.9913 20.8977 33.5339 20.9574 33.166 21.0071C32.301 21.1165 31.5105 21.3004 30.7946 21.5589C30.0886 21.8175 29.5218 22.1903 29.0943 22.6776C28.6767 23.1548 28.4679 23.7912 28.4679 24.5866C28.4679 25.6903 28.8755 26.5256 29.6909 27.0923C30.5062 27.6491 31.5453 27.9276 32.8081 27.9276ZM58.7337 31.4624C56.5163 31.4624 54.6072 30.9602 53.0064 29.956C51.4155 28.9418 50.1925 27.5447 49.3374 25.7649C48.4822 23.9851 48.0547 21.9467 48.0547 19.6499C48.0547 17.3232 48.4922 15.2699 49.3672 13.4901C50.2422 11.7003 51.4751 10.3033 53.0661 9.299C54.657 8.29474 56.5313 7.79261 58.6889 7.79261C60.429 7.79261 61.9801 8.11577 63.3423 8.76207C64.7045 9.39844 65.8033 10.2933 66.6385 11.4467C67.4837 12.6001 67.9858 13.9474 68.1449 15.4886H63.8047C63.5661 14.4148 63.0192 13.4901 62.1641 12.7145C61.3189 11.9389 60.1854 11.5511 58.7635 11.5511C57.5206 11.5511 56.4318 11.8793 55.4972 12.5355C54.5724 13.1818 53.8516 14.1065 53.3345 15.3097C52.8175 16.5028 52.5589 17.9148 52.5589 19.5455C52.5589 21.2159 52.8125 22.6577 53.3196 23.8707C53.8267 25.0838 54.5426 26.0234 55.4673 26.6896C56.402 27.3558 57.5007 27.6889 58.7635 27.6889C59.6087 27.6889 60.3743 27.5348 61.0604 27.2266C61.7564 26.9084 62.3381 26.456 62.8054 25.8693C63.2827 25.2827 63.6158 24.5767 63.8047 23.7514H68.1449C67.9858 25.233 67.5036 26.5554 66.6982 27.7188C65.8928 28.8821 64.8139 29.7969 63.4616 30.4631C62.1193 31.1293 60.5433 31.4624 58.7337 31.4624ZM88.3805 39.5909V27.4354H88.112C87.8436 27.9226 87.4558 28.4794 86.9487 29.1058C86.4515 29.7322 85.7654 30.2791 84.8904 30.7464C84.0154 31.2138 82.8819 31.4474 81.4899 31.4474C79.6404 31.4474 77.9899 30.9751 76.5382 30.0305C75.0964 29.076 73.9629 27.7187 73.1376 25.9588C72.3223 24.1889 71.9146 22.0661 71.9146 19.5902C71.9146 17.1143 72.3272 14.9964 73.1525 13.2365C73.9877 11.4766 75.1312 10.1293 76.5829 9.1946C78.0346 8.25994 79.6802 7.79261 81.5197 7.79261C82.9416 7.79261 84.085 8.03125 84.9501 8.50852C85.8251 8.97585 86.5012 9.52273 86.9785 10.1491C87.4657 10.7756 87.8436 11.3274 88.112 11.8047H88.4849V8.09091H92.84V39.5909H88.3805ZM82.4743 27.6442C83.7569 27.6442 84.8407 27.3061 85.7257 26.63C86.6206 25.9439 87.2967 24.9943 87.7541 23.7812C88.2214 22.5682 88.4551 21.1562 88.4551 19.5455C88.4551 17.9545 88.2264 16.5625 87.769 15.3693C87.3116 14.1761 86.6404 13.2464 85.7555 12.5803C84.8706 11.9141 83.7768 11.581 82.4743 11.581C81.1319 11.581 80.0133 11.929 79.1184 12.625C78.2235 13.321 77.5474 14.2706 77.09 15.4737C76.6426 16.6768 76.4189 18.0341 76.4189 19.5455C76.4189 21.0767 76.6475 22.4538 77.1049 23.6768C77.5623 24.8999 78.2385 25.8693 79.1333 26.5852C80.0382 27.2912 81.1518 27.6442 82.4743 27.6442ZM113.348 21.4993V8.09091H117.822V31H113.437V27.0327H113.199C112.672 28.2557 111.827 29.2749 110.663 30.0902C109.51 30.8956 108.073 31.2983 106.353 31.2983C104.881 31.2983 103.579 30.9751 102.445 30.3288C101.322 29.6726 100.437 28.7031 99.7903 27.4205C99.1539 26.1378 98.8358 24.5518 98.8358 22.6626V8.09091H103.295V22.1257C103.295 23.6868 103.728 24.9297 104.593 25.8544C105.458 26.7791 106.581 27.2415 107.964 27.2415C108.799 27.2415 109.629 27.0327 110.454 26.6151C111.29 26.1974 111.981 25.5661 112.528 24.7209C113.084 23.8757 113.358 22.8018 113.348 21.4993ZM133.688 31.4624C131.431 31.4624 129.487 30.9801 127.856 30.0156C126.235 29.0412 124.983 27.674 124.098 25.9141C123.223 24.1442 122.785 22.071 122.785 19.6946C122.785 17.348 123.223 15.2798 124.098 13.4901C124.983 11.7003 126.216 10.3033 127.797 9.299C129.387 8.29474 131.247 7.79261 133.375 7.79261C134.667 7.79261 135.92 8.00639 137.133 8.43395C138.346 8.86151 139.435 9.53267 140.4 10.4474C141.364 11.3622 142.125 12.5504 142.681 14.0121C143.238 15.4638 143.517 17.2287 143.517 19.3068V20.8878H125.306V17.5469H139.147C139.147 16.3736 138.908 15.3345 138.431 14.4297C137.953 13.5149 137.282 12.794 136.417 12.267C135.562 11.7401 134.558 11.4766 133.404 11.4766C132.152 11.4766 131.058 11.7848 130.123 12.4013C129.199 13.0078 128.483 13.8033 127.975 14.7876C127.478 15.7621 127.23 16.821 127.23 17.9645V20.5746C127.23 22.1058 127.498 23.4084 128.035 24.4822C128.582 25.5561 129.343 26.3764 130.317 26.9432C131.292 27.5 132.43 27.7784 133.733 27.7784C134.578 27.7784 135.348 27.6591 136.044 27.4205C136.74 27.1719 137.342 26.804 137.849 26.3168C138.356 25.8295 138.744 25.228 139.012 24.5121L143.233 25.2727C142.895 26.5156 142.289 27.6044 141.414 28.5391C140.549 29.4638 139.46 30.1847 138.147 30.7017C136.845 31.2088 135.358 31.4624 133.688 31.4624ZM165.632 13.6839L161.59 14.3999C161.421 13.8828 161.152 13.3906 160.784 12.9233C160.426 12.456 159.939 12.0732 159.323 11.7749C158.706 11.4766 157.936 11.3274 157.011 11.3274C155.748 11.3274 154.694 11.6108 153.849 12.1776C153.004 12.7344 152.581 13.4553 152.581 14.3402C152.581 15.1058 152.865 15.7223 153.431 16.1896C153.998 16.657 154.913 17.0398 156.176 17.3381L159.815 18.1733C161.923 18.6605 163.494 19.4112 164.528 20.4254C165.562 21.4396 166.079 22.7571 166.079 24.3778C166.079 25.75 165.681 26.973 164.886 28.0469C164.1 29.1108 163.002 29.946 161.59 30.5526C160.188 31.1591 158.562 31.4624 156.713 31.4624C154.147 31.4624 152.054 30.9155 150.433 29.8217C148.813 28.718 147.818 27.152 147.45 25.1236L151.761 24.4673C152.029 25.5909 152.581 26.4411 153.416 27.0178C154.252 27.5845 155.34 27.8679 156.683 27.8679C158.144 27.8679 159.313 27.5646 160.188 26.9581C161.063 26.3416 161.5 25.5909 161.5 24.706C161.5 23.9901 161.232 23.3885 160.695 22.9013C160.168 22.4141 159.357 22.0462 158.264 21.7976L154.386 20.9474C152.248 20.4602 150.667 19.6847 149.643 18.6207C148.629 17.5568 148.122 16.2095 148.122 14.5788C148.122 13.2266 148.499 12.0433 149.255 11.0291C150.011 10.0149 151.055 9.22443 152.387 8.65767C153.72 8.08097 155.246 7.79261 156.966 7.79261C159.442 7.79261 161.391 8.32955 162.813 9.40341C164.235 10.4673 165.174 11.8942 165.632 13.6839ZM207.825 10.3878H203.172C202.993 9.39346 202.66 8.51846 202.173 7.76278C201.686 7.0071 201.089 6.36577 200.383 5.83878C199.677 5.31179 198.887 4.91406 198.012 4.6456C197.146 4.37713 196.227 4.2429 195.252 4.2429C193.492 4.2429 191.916 4.68537 190.524 5.57031C189.142 6.45526 188.048 7.75284 187.243 9.46307C186.448 11.1733 186.05 13.2614 186.05 15.7273C186.05 18.2131 186.448 20.3111 187.243 22.0213C188.048 23.7315 189.147 25.0241 190.539 25.8991C191.931 26.7741 193.497 27.2116 195.237 27.2116C196.202 27.2116 197.117 27.0824 197.982 26.8239C198.857 26.5554 199.647 26.1626 200.353 25.6456C201.059 25.1286 201.656 24.4972 202.143 23.7514C202.64 22.9957 202.983 22.1307 203.172 21.1562L207.825 21.1712C207.577 22.6726 207.095 24.0547 206.379 25.3175C205.673 26.5703 204.763 27.6541 203.649 28.5689C202.546 29.4737 201.283 30.1747 199.861 30.6719C198.439 31.169 196.888 31.4176 195.208 31.4176C192.563 31.4176 190.206 30.7912 188.138 29.5384C186.07 28.2756 184.439 26.4709 183.246 24.1243C182.063 21.7777 181.471 18.9787 181.471 15.7273C181.471 12.4659 182.068 9.6669 183.261 7.33025C184.454 4.98366 186.085 3.18395 188.153 1.93111C190.221 0.668323 192.573 0.0369307 195.208 0.0369307C196.828 0.0369307 198.34 0.270596 199.742 0.737926C201.154 1.19531 202.421 1.87145 203.545 2.76633C204.669 3.65128 205.598 4.73508 206.334 6.01775C207.07 7.29048 207.567 8.74716 207.825 10.3878ZM222.632 31.4624C220.484 31.4624 218.61 30.9702 217.009 29.9858C215.408 29.0014 214.165 27.6243 213.281 25.8544C212.396 24.0845 211.953 22.0163 211.953 19.6499C211.953 17.2734 212.396 15.1953 213.281 13.4155C214.165 11.6357 215.408 10.2536 217.009 9.26918C218.61 8.2848 220.484 7.79261 222.632 7.79261C224.78 7.79261 226.654 8.2848 228.255 9.26918C229.856 10.2536 231.099 11.6357 231.984 13.4155C232.869 15.1953 233.311 17.2734 233.311 19.6499C233.311 22.0163 232.869 24.0845 231.984 25.8544C231.099 27.6243 229.856 29.0014 228.255 29.9858C226.654 30.9702 224.78 31.4624 222.632 31.4624ZM222.647 27.7188C224.039 27.7188 225.192 27.3509 226.107 26.6151C227.022 25.8793 227.698 24.8999 228.136 23.6768C228.583 22.4538 228.807 21.1065 228.807 19.6349C228.807 18.1733 228.583 16.831 228.136 15.608C227.698 14.375 227.022 13.3857 226.107 12.6399C225.192 11.8942 224.039 11.5213 222.647 11.5213C221.245 11.5213 220.082 11.8942 219.157 12.6399C218.242 13.3857 217.561 14.375 217.114 15.608C216.676 16.831 216.457 18.1733 216.457 19.6349C216.457 21.1065 216.676 22.4538 217.114 23.6768C217.561 24.8999 218.242 25.8793 219.157 26.6151C220.082 27.3509 221.245 27.7188 222.647 27.7188ZM252.801 21.4993V8.09091H257.275V31H252.89V27.0327H252.652C252.125 28.2557 251.28 29.2749 250.116 30.0902C248.963 30.8956 247.526 31.2983 245.806 31.2983C244.334 31.2983 243.032 30.9751 241.898 30.3288C240.775 29.6726 239.89 28.7031 239.243 27.4205C238.607 26.1378 238.289 24.5518 238.289 22.6626V8.09091H242.748V22.1257C242.748 23.6868 243.181 24.9297 244.046 25.8544C244.911 26.7791 246.035 27.2415 247.417 27.2415C248.252 27.2415 249.082 27.0327 249.907 26.6151C250.743 26.1974 251.434 25.5661 251.981 24.7209C252.537 23.8757 252.811 22.8018 252.801 21.4993ZM280.434 13.6839L276.392 14.3999C276.223 13.8828 275.955 13.3906 275.587 12.9233C275.229 12.456 274.742 12.0732 274.125 11.7749C273.509 11.4766 272.738 11.3274 271.814 11.3274C270.551 11.3274 269.497 11.6108 268.652 12.1776C267.806 12.7344 267.384 13.4553 267.384 14.3402C267.384 15.1058 267.667 15.7223 268.234 16.1896C268.801 16.657 269.716 17.0398 270.978 17.3381L274.618 18.1733C276.725 18.6605 278.297 19.4112 279.331 20.4254C280.365 21.4396 280.882 22.7571 280.882 24.3778C280.882 25.75 280.484 26.973 279.689 28.0469C278.903 29.1108 277.804 29.946 276.392 30.5526C274.99 31.1591 273.365 31.4624 271.515 31.4624C268.95 31.4624 266.857 30.9155 265.236 29.8217C263.615 28.718 262.621 27.152 262.253 25.1236L266.564 24.4673C266.832 25.5909 267.384 26.4411 268.219 27.0178C269.054 27.5845 270.143 27.8679 271.485 27.8679C272.947 27.8679 274.115 27.5646 274.99 26.9581C275.865 26.3416 276.303 25.5909 276.303 24.706C276.303 23.9901 276.034 23.3885 275.498 22.9013C274.971 22.4141 274.16 22.0462 273.066 21.7976L269.189 20.9474C267.051 20.4602 265.47 19.6847 264.446 18.6207C263.431 17.5568 262.924 16.2095 262.924 14.5788C262.924 13.2266 263.302 12.0433 264.058 11.0291C264.814 10.0149 265.858 9.22443 267.19 8.65767C268.522 8.08097 270.049 7.79261 271.769 7.79261C274.245 7.79261 276.194 8.32955 277.615 9.40341C279.037 10.4673 279.977 11.8942 280.434 13.6839ZM296.479 8.09091V11.6705H283.965V8.09091H296.479ZM287.321 2.60227H291.781V24.2734C291.781 25.1385 291.91 25.7898 292.169 26.2273C292.427 26.6548 292.76 26.9482 293.168 27.1072C293.585 27.2564 294.038 27.331 294.525 27.331C294.883 27.331 295.196 27.3061 295.465 27.2564C295.733 27.2067 295.942 27.1669 296.091 27.1371L296.896 30.821C296.638 30.9205 296.27 31.0199 295.793 31.1193C295.316 31.2287 294.719 31.2884 294.003 31.2983C292.83 31.3182 291.736 31.1094 290.722 30.6719C289.708 30.2344 288.887 29.5582 288.261 28.6435C287.634 27.7287 287.321 26.5803 287.321 25.1982V2.60227ZM311.039 31.4624C308.782 31.4624 306.838 30.9801 305.208 30.0156C303.587 29.0412 302.334 27.674 301.449 25.9141C300.574 24.1442 300.137 22.071 300.137 19.6946C300.137 17.348 300.574 15.2798 301.449 13.4901C302.334 11.7003 303.567 10.3033 305.148 9.299C306.739 8.29474 308.598 7.79261 310.726 7.79261C312.019 7.79261 313.272 8.00639 314.485 8.43395C315.698 8.86151 316.787 9.53267 317.751 10.4474C318.716 11.3622 319.476 12.5504 320.033 14.0121C320.59 15.4638 320.868 17.2287 320.868 19.3068V20.8878H302.657V17.5469H316.498C316.498 16.3736 316.26 15.3345 315.782 14.4297C315.305 13.5149 314.634 12.794 313.769 12.267C312.914 11.7401 311.909 11.4766 310.756 11.4766C309.503 11.4766 308.409 11.7848 307.475 12.4013C306.55 13.0078 305.834 13.8033 305.327 14.7876C304.83 15.7621 304.581 16.821 304.581 17.9645V20.5746C304.581 22.1058 304.85 23.4084 305.387 24.4822C305.934 25.5561 306.694 26.3764 307.669 26.9432C308.643 27.5 309.782 27.7784 311.084 27.7784C311.929 27.7784 312.7 27.6591 313.396 27.4205C314.092 27.1719 314.694 26.804 315.201 26.3168C315.708 25.8295 316.096 25.228 316.364 24.5121L320.585 25.2727C320.247 26.5156 319.64 27.6044 318.765 28.5391C317.9 29.4638 316.811 30.1847 315.499 30.7017C314.196 31.2088 312.71 31.4624 311.039 31.4624ZM332.483 31.5071C331.031 31.5071 329.719 31.2386 328.546 30.7017C327.372 30.1548 326.443 29.3643 325.757 28.3303C325.08 27.2962 324.742 26.0284 324.742 24.527C324.742 23.2344 324.991 22.1705 325.488 21.3352C325.985 20.5 326.656 19.8388 327.502 19.3516C328.347 18.8643 329.291 18.4964 330.335 18.2479C331.379 17.9993 332.443 17.8104 333.527 17.6811C334.899 17.522 336.013 17.3928 336.868 17.2933C337.723 17.1839 338.345 17.0099 338.732 16.7713C339.12 16.5327 339.314 16.1449 339.314 15.608V15.5036C339.314 14.201 338.946 13.1918 338.21 12.4759C337.485 11.7599 336.401 11.402 334.959 11.402C333.458 11.402 332.274 11.7351 331.409 12.4013C330.554 13.0575 329.963 13.7884 329.634 14.5938L325.443 13.6392C325.941 12.2472 326.666 11.1236 327.621 10.2685C328.585 9.40341 329.694 8.77699 330.947 8.3892C332.2 7.99148 333.517 7.79261 334.899 7.79261C335.814 7.79261 336.784 7.90199 337.808 8.12074C338.842 8.32955 339.806 8.71733 340.701 9.28409C341.606 9.85085 342.347 10.6612 342.923 11.7152C343.5 12.7592 343.789 14.1165 343.789 15.7869V31H339.433V27.8679H339.254C338.966 28.4446 338.534 29.0114 337.957 29.5682C337.38 30.125 336.639 30.5874 335.735 30.9553C334.83 31.3232 333.746 31.5071 332.483 31.5071ZM333.453 27.9276C334.686 27.9276 335.74 27.6839 336.615 27.1967C337.499 26.7095 338.171 26.0732 338.628 25.2876C339.095 24.4922 339.329 23.642 339.329 22.7372V19.7841C339.17 19.9432 338.862 20.0923 338.404 20.2315C337.957 20.3608 337.445 20.4751 336.868 20.5746C336.291 20.6641 335.73 20.7486 335.183 20.8281C334.636 20.8977 334.178 20.9574 333.811 21.0071C332.945 21.1165 332.155 21.3004 331.439 21.5589C330.733 21.8175 330.166 22.1903 329.739 22.6776C329.321 23.1548 329.112 23.7912 329.112 24.5866C329.112 25.6903 329.52 26.5256 330.335 27.0923C331.151 27.6491 332.19 27.9276 333.453 27.9276ZM364.24 21.4993V8.09091H368.715V31H364.33V27.0327H364.091C363.564 28.2557 362.719 29.2749 361.556 30.0902C360.402 30.8956 358.966 31.2983 357.245 31.2983C355.774 31.2983 354.471 30.9751 353.338 30.3288C352.214 29.6726 351.329 28.7031 350.683 27.4205C350.047 26.1378 349.728 24.5518 349.728 22.6626V8.09091H354.188V22.1257C354.188 23.6868 354.62 24.9297 355.485 25.8544C356.35 26.7791 357.474 27.2415 358.856 27.2415C359.691 27.2415 360.522 27.0327 361.347 26.6151C362.182 26.1974 362.873 25.5661 363.42 24.7209C363.977 23.8757 364.25 22.8018 364.24 21.4993Z" fill="white"/>
</svg>
