<svg width="122" height="14" viewBox="0 0 122 14" fill="none" xmlns="http://www.w3.org/2000/svg">
<path d="M5.13068 0.818182V8.09659C5.13068 9.36435 4.52415 10.0455 3.46023 10.0455C2.49077 10.0455 1.78977 9.47869 1.78977 8.61364H0.576705C0.576705 10.1797 1.78977 11.1392 3.46023 11.1392C5.23011 11.1392 6.36364 10.0504 6.36364 8.09659V0.818182H5.13068ZM10.9226 11.179C12.255 11.179 12.951 10.4631 13.1896 9.96591H13.2493V11H14.4226V5.96875C14.4226 3.54261 12.5732 3.2642 11.5987 3.2642C10.4453 3.2642 9.13281 3.66193 8.53622 5.05398L9.64986 5.4517C9.90838 4.89489 10.5199 4.2983 11.6385 4.2983C12.7173 4.2983 13.2493 4.87003 13.2493 5.84943V5.8892C13.2493 6.45597 12.6726 6.40625 11.2805 6.58523C9.86364 6.76918 8.31747 7.08239 8.31747 8.83239C8.31747 10.3239 9.47088 11.179 10.9226 11.179ZM11.1016 10.125C10.1669 10.125 9.49077 9.70739 9.49077 8.89205C9.49077 7.99716 10.3061 7.71875 11.2209 7.59943C11.718 7.53977 13.0504 7.40057 13.2493 7.16193V8.2358C13.2493 9.19034 12.4936 10.125 11.1016 10.125ZM19.6664 11.1591C21.3567 11.1591 22.4703 10.125 22.6692 8.77273H21.4959C21.2772 9.60795 20.5811 10.1051 19.6664 10.1051C18.2743 10.1051 17.3794 8.9517 17.3794 7.18182C17.3794 5.4517 18.2942 4.31818 19.6664 4.31818C20.7005 4.31818 21.3169 4.95455 21.4959 5.65057H22.6692C22.4703 4.21875 21.2573 3.2642 19.6465 3.2642C17.5783 3.2642 16.2061 4.89489 16.2061 7.22159C16.2061 9.50852 17.5186 11.1591 19.6664 11.1591ZM30.7679 13.8636V3.36364H29.6344V4.5767H29.4952C29.2367 4.17898 28.7793 3.2642 27.2878 3.2642C25.3588 3.2642 24.0265 4.79545 24.0265 7.2017C24.0265 9.62784 25.3588 11.1591 27.2679 11.1591C28.7395 11.1591 29.2367 10.2443 29.4952 9.8267H29.5946V13.8636H30.7679ZM29.6145 7.18182C29.6145 8.91193 28.839 10.1051 27.427 10.1051C25.9554 10.1051 25.1998 8.8125 25.1998 7.18182C25.1998 5.57102 25.9355 4.31818 27.427 4.31818C28.8588 4.31818 29.6145 5.47159 29.6145 7.18182ZM37.7282 7.87784C37.7282 9.30966 36.6344 9.96591 35.7594 9.96591C34.785 9.96591 34.089 9.25 34.089 8.13636V3.36364H32.9157V8.21591C32.9157 10.1648 33.9498 11.0994 35.3816 11.0994C36.535 11.0994 37.2907 10.483 37.6486 9.70739H37.7282V11H38.9015V3.36364H37.7282V7.87784ZM44.2521 11.1591C45.8033 11.1591 46.9368 10.3835 47.2947 9.23011L46.1612 8.91193C45.8629 9.70739 45.1719 10.1051 44.2521 10.1051C42.875 10.1051 41.9254 9.2152 41.8707 7.57955H47.4141V7.08239C47.4141 4.23864 45.7237 3.2642 44.1328 3.2642C42.0646 3.2642 40.6925 4.89489 40.6925 7.24148C40.6925 9.58807 42.0447 11.1591 44.2521 11.1591ZM41.8707 6.56534C41.9503 5.37713 42.7905 4.31818 44.1328 4.31818C45.4055 4.31818 46.2209 5.27273 46.2209 6.56534H41.8707ZM54.608 5.07386C54.2401 3.99006 53.4148 3.2642 51.9034 3.2642C50.2926 3.2642 49.0994 4.17898 49.0994 5.47159C49.0994 6.52557 49.7259 7.23153 51.1278 7.55966L52.4006 7.85795C53.1712 8.03693 53.5341 8.40483 53.5341 8.93182C53.5341 9.58807 52.8381 10.125 51.7443 10.125C50.7848 10.125 50.1832 9.71236 49.9744 8.89205L48.8608 9.17045C49.1342 10.468 50.2031 11.1591 51.7642 11.1591C53.5391 11.1591 54.7472 10.1896 54.7472 8.87216C54.7472 7.80824 54.081 7.13707 52.7188 6.80398L51.5852 6.52557C50.6804 6.30185 50.2727 5.99858 50.2727 5.41193C50.2727 4.75568 50.9688 4.27841 51.9034 4.27841C52.9276 4.27841 53.3501 4.84517 53.554 5.37216L54.608 5.07386ZM68.8031 4C68.4252 1.91193 66.7548 0.678977 64.7065 0.678977C62.1014 0.678977 60.2122 2.6875 60.2122 5.90909C60.2122 9.13068 62.1014 11.1392 64.7065 11.1392C66.7548 11.1392 68.4252 9.90625 68.8031 7.81818H67.5701C67.2718 9.23011 66.0588 9.9858 64.7065 9.9858C62.8571 9.9858 61.4054 8.55398 61.4054 5.90909C61.4054 3.2642 62.8571 1.83239 64.7065 1.83239C66.0588 1.83239 67.2718 2.58807 67.5701 4H68.8031ZM73.7386 11.1591C75.8068 11.1591 77.1989 9.58807 77.1989 7.22159C77.1989 4.83523 75.8068 3.2642 73.7386 3.2642C71.6705 3.2642 70.2784 4.83523 70.2784 7.22159C70.2784 9.58807 71.6705 11.1591 73.7386 11.1591ZM73.7386 10.1051C72.1676 10.1051 71.4517 8.75284 71.4517 7.22159C71.4517 5.69034 72.1676 4.31818 73.7386 4.31818C75.3097 4.31818 76.0256 5.69034 76.0256 7.22159C76.0256 8.75284 75.3097 10.1051 73.7386 10.1051ZM83.8024 7.87784C83.8024 9.30966 82.7086 9.96591 81.8336 9.96591C80.8592 9.96591 80.1632 9.25 80.1632 8.13636V3.36364H78.9899V8.21591C78.9899 10.1648 80.024 11.0994 81.4558 11.0994C82.6092 11.0994 83.3649 10.483 83.7228 9.70739H83.8024V11H84.9757V3.36364H83.8024V7.87784ZM92.5337 5.07386C92.1658 3.99006 91.3406 3.2642 89.8292 3.2642C88.2184 3.2642 87.0252 4.17898 87.0252 5.47159C87.0252 6.52557 87.6516 7.23153 89.0536 7.55966L90.3263 7.85795C91.0969 8.03693 91.4599 8.40483 91.4599 8.93182C91.4599 9.58807 90.7638 10.125 89.6701 10.125C88.7106 10.125 88.109 9.71236 87.9002 8.89205L86.7866 9.17045C87.06 10.468 88.1289 11.1591 89.69 11.1591C91.4648 11.1591 92.6729 10.1896 92.6729 8.87216C92.6729 7.80824 92.0067 7.13707 90.6445 6.80398L89.511 6.52557C88.6062 6.30185 88.1985 5.99858 88.1985 5.41193C88.1985 4.75568 88.8945 4.27841 89.8292 4.27841C90.8533 4.27841 91.2759 4.84517 91.4798 5.37216L92.5337 5.07386ZM97.7601 3.36364H96.1294V1.53409H94.9561V3.36364H93.8027V4.35795H94.9561V9.13068C94.9561 10.4631 96.03 11.0994 97.0243 11.0994C97.4618 11.0994 97.7402 11.0199 97.8993 10.9602L97.6607 9.90625C97.5613 9.92614 97.4022 9.96591 97.1436 9.96591C96.6266 9.96591 96.1294 9.80682 96.1294 8.8125V4.35795H97.7601V3.36364ZM102.645 11.1591C104.196 11.1591 105.329 10.3835 105.687 9.23011L104.554 8.91193C104.256 9.70739 103.564 10.1051 102.645 10.1051C101.268 10.1051 100.318 9.2152 100.263 7.57955H105.807V7.08239C105.807 4.23864 104.116 3.2642 102.525 3.2642C100.457 3.2642 99.085 4.89489 99.085 7.24148C99.085 9.58807 100.437 11.1591 102.645 11.1591ZM100.263 6.56534C100.343 5.37713 101.183 4.31818 102.525 4.31818C103.798 4.31818 104.613 5.27273 104.613 6.56534H100.263ZM109.839 11.179C111.171 11.179 111.867 10.4631 112.106 9.96591H112.165V11H113.339V5.96875C113.339 3.54261 111.489 3.2642 110.515 3.2642C109.361 3.2642 108.049 3.66193 107.452 5.05398L108.566 5.4517C108.824 4.89489 109.436 4.2983 110.555 4.2983C111.633 4.2983 112.165 4.87003 112.165 5.84943V5.8892C112.165 6.45597 111.589 6.40625 110.197 6.58523C108.78 6.76918 107.233 7.08239 107.233 8.83239C107.233 10.3239 108.387 11.179 109.839 11.179ZM110.018 10.125C109.083 10.125 108.407 9.70739 108.407 8.89205C108.407 7.99716 109.222 7.71875 110.137 7.59943C110.634 7.53977 111.966 7.40057 112.165 7.16193V8.2358C112.165 9.19034 111.41 10.125 110.018 10.125ZM120.293 7.87784C120.293 9.30966 119.199 9.96591 118.324 9.96591C117.349 9.96591 116.653 9.25 116.653 8.13636V3.36364H115.48V8.21591C115.48 10.1648 116.514 11.0994 117.946 11.0994C119.099 11.0994 119.855 10.483 120.213 9.70739H120.293V11H121.466V3.36364H120.293V7.87784Z" fill="black"/>
</svg>
