<svg width="165" height="25" viewBox="0 0 165 25" fill="none" xmlns="http://www.w3.org/2000/svg">
<path d="M0.125 19V1.54545H4.86364V15.1818H11.9205V19H0.125ZM17.5518 19.2045C16.7166 19.2045 15.978 19.0682 15.3359 18.7955C14.6996 18.517 14.1996 18.0966 13.8359 17.5341C13.4723 16.9716 13.2905 16.2557 13.2905 15.3864C13.2905 14.6705 13.4126 14.0597 13.657 13.554C13.9013 13.0426 14.2422 12.625 14.6797 12.3011C15.1172 11.9773 15.6257 11.7301 16.2053 11.5597C16.7905 11.3892 17.4212 11.2784 18.0973 11.2273C18.8303 11.1705 19.4183 11.1023 19.8615 11.0227C20.3104 10.9375 20.6342 10.821 20.8331 10.6733C21.032 10.5199 21.1314 10.3182 21.1314 10.0682V10.0341C21.1314 9.69318 21.0007 9.43182 20.7393 9.25C20.478 9.06818 20.1428 8.97727 19.7337 8.97727C19.2848 8.97727 18.9183 9.0767 18.6342 9.27557C18.3558 9.46875 18.1882 9.76705 18.1314 10.1705H13.8018C13.8587 9.375 14.1115 8.64205 14.5604 7.97159C15.0149 7.29545 15.6768 6.75568 16.5462 6.35227C17.4155 5.94318 18.5007 5.73864 19.8018 5.73864C20.7393 5.73864 21.5803 5.84943 22.3246 6.07102C23.0689 6.28693 23.7024 6.59091 24.2251 6.98295C24.7479 7.36932 25.1456 7.82386 25.4183 8.34659C25.6967 8.86364 25.8359 9.42614 25.8359 10.0341V19H21.4382V17.1591H21.3359C21.0746 17.6477 20.7564 18.0426 20.3814 18.3438C20.0121 18.6449 19.5888 18.8636 19.1115 19C18.6399 19.1364 18.12 19.2045 17.5518 19.2045ZM19.0859 16.2386C19.4439 16.2386 19.7791 16.1648 20.0916 16.017C20.4098 15.8693 20.6683 15.6562 20.8672 15.3778C21.0661 15.0994 21.1655 14.7614 21.1655 14.3636V13.2727C21.0405 13.3239 20.907 13.3722 20.7649 13.4176C20.6286 13.4631 20.4808 13.5057 20.3217 13.5455C20.1683 13.5852 20.0036 13.6222 19.8274 13.6562C19.657 13.6903 19.478 13.7216 19.2905 13.75C18.9268 13.8068 18.6286 13.9006 18.3956 14.0312C18.1683 14.1562 17.9979 14.3125 17.8842 14.5C17.7763 14.6818 17.7223 14.8864 17.7223 15.1136C17.7223 15.4773 17.8501 15.7557 18.1058 15.9489C18.3615 16.142 18.6882 16.2386 19.0859 16.2386ZM34.3906 24.1818C33.0781 24.1818 31.9531 23.9943 31.0156 23.6193C30.0838 23.25 29.3594 22.7386 28.8423 22.0852C28.331 21.4375 28.044 20.6932 27.9815 19.8523H32.5156C32.5611 20.1307 32.6747 20.3551 32.8565 20.5256C33.0384 20.696 33.2713 20.8182 33.5554 20.892C33.8452 20.9716 34.169 21.0114 34.527 21.0114C35.1349 21.0114 35.6378 20.8636 36.0355 20.5682C36.4389 20.2727 36.6406 19.7386 36.6406 18.9659V16.75H36.5043C36.3338 17.1932 36.0724 17.571 35.7202 17.8835C35.3679 18.1903 34.9446 18.4261 34.4503 18.5909C33.956 18.75 33.4134 18.8295 32.8224 18.8295C31.8906 18.8295 31.0327 18.6136 30.2486 18.1818C29.4702 17.75 28.8452 17.0653 28.3736 16.1278C27.9077 15.1903 27.6747 13.9659 27.6747 12.4545C27.6747 10.875 27.919 9.59091 28.4077 8.60227C28.902 7.61364 29.5384 6.8892 30.3168 6.42898C31.1009 5.96875 31.9247 5.73864 32.7884 5.73864C33.4361 5.73864 34.0043 5.85227 34.4929 6.07954C34.9815 6.30114 35.3906 6.59943 35.7202 6.97443C36.0497 7.34375 36.2997 7.75 36.4702 8.19318H36.5724V5.90909H41.277V18.9659C41.277 20.0739 40.9901 21.0142 40.4162 21.7869C39.848 22.5653 39.0469 23.1591 38.0128 23.5682C36.9787 23.9773 35.7713 24.1818 34.3906 24.1818ZM34.5611 15.4886C34.9929 15.4886 35.3622 15.3693 35.669 15.1307C35.9815 14.8864 36.2202 14.5398 36.3849 14.0909C36.5554 13.6364 36.6406 13.0909 36.6406 12.4545C36.6406 11.8068 36.5554 11.2528 36.3849 10.7926C36.2202 10.3267 35.9815 9.97159 35.669 9.72727C35.3622 9.47727 34.9929 9.35227 34.5611 9.35227C34.1293 9.35227 33.7599 9.47727 33.4531 9.72727C33.152 9.97159 32.919 10.3267 32.7543 10.7926C32.5952 11.2528 32.5156 11.8068 32.5156 12.4545C32.5156 13.1023 32.5952 13.6534 32.7543 14.108C32.919 14.5568 33.152 14.9006 33.4531 15.1392C33.7599 15.3722 34.1293 15.4886 34.5611 15.4886ZM49.9766 19.2386C48.5561 19.2386 47.3402 18.9574 46.3288 18.3949C45.3175 17.8267 44.5419 17.0369 44.0021 16.0256C43.4624 15.0085 43.1925 13.8295 43.1925 12.4886C43.1925 11.1477 43.4624 9.97159 44.0021 8.96023C44.5419 7.94318 45.3175 7.15341 46.3288 6.59091C47.3402 6.02273 48.5561 5.73864 49.9766 5.73864C51.397 5.73864 52.6129 6.02273 53.6243 6.59091C54.6357 7.15341 55.4112 7.94318 55.951 8.96023C56.4908 9.97159 56.7607 11.1477 56.7607 12.4886C56.7607 13.8295 56.4908 15.0085 55.951 16.0256C55.4112 17.0369 54.6357 17.8267 53.6243 18.3949C52.6129 18.9574 51.397 19.2386 49.9766 19.2386ZM50.0107 15.7614C50.4084 15.7614 50.7521 15.6278 51.0419 15.3608C51.3317 15.0937 51.5561 14.7131 51.7152 14.2188C51.8743 13.7244 51.9538 13.1364 51.9538 12.4545C51.9538 11.767 51.8743 11.179 51.7152 10.6903C51.5561 10.196 51.3317 9.81534 51.0419 9.5483C50.7521 9.28125 50.4084 9.14773 50.0107 9.14773C49.5902 9.14773 49.2294 9.28125 48.9283 9.5483C48.6271 9.81534 48.397 10.196 48.2379 10.6903C48.0788 11.179 47.9993 11.767 47.9993 12.4545C47.9993 13.1364 48.0788 13.7244 48.2379 14.2188C48.397 14.7131 48.6271 15.0937 48.9283 15.3608C49.2294 15.6278 49.5902 15.7614 50.0107 15.7614ZM68.1896 19.1705C67.2578 19.1705 66.3999 18.9261 65.6158 18.4375C64.8374 17.9489 64.2124 17.2074 63.7408 16.2131C63.2749 15.2187 63.0419 13.9659 63.0419 12.4545C63.0419 10.875 63.2862 9.59091 63.7749 8.60227C64.2692 7.61364 64.9055 6.8892 65.6839 6.42898C66.468 5.96875 67.2919 5.73864 68.1555 5.73864C68.8033 5.73864 69.3714 5.85227 69.8601 6.07954C70.3487 6.30114 70.7578 6.59943 71.0874 6.97443C71.4169 7.34375 71.6669 7.75 71.8374 8.19318H71.9055V1.54545H76.6101V19H71.9396V16.8523H71.8374C71.6555 17.2955 71.3942 17.6932 71.0533 18.0455C70.718 18.392 70.3089 18.6676 69.826 18.8722C69.3487 19.071 68.8033 19.1705 68.1896 19.1705ZM69.9283 15.5568C70.3601 15.5568 70.7294 15.4318 71.0362 15.1818C71.3487 14.9261 71.5874 14.5682 71.7521 14.108C71.9226 13.642 72.0078 13.0909 72.0078 12.4545C72.0078 11.8068 71.9226 11.2528 71.7521 10.7926C71.5874 10.3267 71.3487 9.97159 71.0362 9.72727C70.7294 9.47727 70.3601 9.35227 69.9283 9.35227C69.4964 9.35227 69.1271 9.47727 68.8203 9.72727C68.5192 9.97159 68.2862 10.3267 68.1214 10.7926C67.9624 11.2528 67.8828 11.8068 67.8828 12.4545C67.8828 13.1023 67.9624 13.6591 68.1214 14.125C68.2862 14.5852 68.5192 14.9403 68.8203 15.1903C69.1271 15.4347 69.4964 15.5568 69.9283 15.5568ZM78.9197 19V5.90909H83.6243V19H78.9197ZM81.272 4.54545C80.6357 4.54545 80.0902 4.33523 79.6357 3.91477C79.1811 3.49432 78.9538 2.98864 78.9538 2.39773C78.9538 1.80682 79.1811 1.30114 79.6357 0.880681C80.0902 0.460227 80.6357 0.25 81.272 0.25C81.9141 0.25 82.4595 0.460227 82.9084 0.880681C83.3629 1.30114 83.5902 1.80682 83.5902 2.39773C83.5902 2.98864 83.3629 3.49432 82.9084 3.91477C82.4595 4.33523 81.9141 4.54545 81.272 4.54545ZM90.7344 19V1.54545H98.3026C99.6321 1.54545 100.749 1.72443 101.652 2.08239C102.561 2.44034 103.246 2.94602 103.706 3.59943C104.172 4.25284 104.405 5.02273 104.405 5.90909C104.405 6.55114 104.263 7.13636 103.979 7.66477C103.7 8.19318 103.308 8.63636 102.803 8.99432C102.297 9.34659 101.706 9.59091 101.03 9.72727V9.89773C101.78 9.92614 102.462 10.1165 103.075 10.4688C103.689 10.8153 104.178 11.2955 104.541 11.9091C104.905 12.517 105.087 13.233 105.087 14.0568C105.087 15.0114 104.837 15.8608 104.337 16.6051C103.842 17.3494 103.138 17.9347 102.223 18.3608C101.308 18.7869 100.217 19 98.9503 19H90.7344ZM95.473 15.2159H97.6889C98.4844 15.2159 99.081 15.0682 99.4787 14.7727C99.8764 14.4716 100.075 14.0284 100.075 13.4432C100.075 13.0341 99.9815 12.6875 99.794 12.4034C99.6065 12.1193 99.3395 11.9034 98.9929 11.7557C98.652 11.608 98.2401 11.5341 97.7571 11.5341H95.473V15.2159ZM95.473 8.60227H97.4162C97.831 8.60227 98.1974 8.53693 98.5156 8.40625C98.8338 8.27557 99.081 8.08807 99.2571 7.84375C99.4389 7.59375 99.5298 7.28977 99.5298 6.93182C99.5298 6.39204 99.3366 5.98011 98.9503 5.69602C98.5639 5.40625 98.0753 5.26136 97.4844 5.26136H95.473V8.60227ZM106.834 19V5.90909H111.402V8.39773H111.538C111.777 7.47727 112.155 6.80398 112.672 6.37784C113.195 5.9517 113.805 5.73864 114.504 5.73864C114.709 5.73864 114.911 5.75568 115.109 5.78977C115.314 5.81818 115.51 5.8608 115.697 5.91761V9.93182C115.464 9.85227 115.178 9.79261 114.837 9.75284C114.496 9.71307 114.203 9.69318 113.959 9.69318C113.499 9.69318 113.084 9.7983 112.714 10.0085C112.351 10.2131 112.064 10.5028 111.854 10.8778C111.643 11.2472 111.538 11.6818 111.538 12.1818V19H106.834ZM120.278 19.2045C119.443 19.2045 118.705 19.0682 118.062 18.7955C117.426 18.517 116.926 18.0966 116.562 17.5341C116.199 16.9716 116.017 16.2557 116.017 15.3864C116.017 14.6705 116.139 14.0597 116.384 13.554C116.628 13.0426 116.969 12.625 117.406 12.3011C117.844 11.9773 118.352 11.7301 118.932 11.5597C119.517 11.3892 120.148 11.2784 120.824 11.2273C121.557 11.1705 122.145 11.1023 122.588 11.0227C123.037 10.9375 123.361 10.821 123.56 10.6733C123.759 10.5199 123.858 10.3182 123.858 10.0682V10.0341C123.858 9.69318 123.727 9.43182 123.466 9.25C123.205 9.06818 122.869 8.97727 122.46 8.97727C122.011 8.97727 121.645 9.0767 121.361 9.27557C121.082 9.46875 120.915 9.76705 120.858 10.1705H116.528C116.585 9.375 116.838 8.64205 117.287 7.97159C117.741 7.29545 118.403 6.75568 119.273 6.35227C120.142 5.94318 121.227 5.73864 122.528 5.73864C123.466 5.73864 124.307 5.84943 125.051 6.07102C125.795 6.28693 126.429 6.59091 126.952 6.98295C127.474 7.36932 127.872 7.82386 128.145 8.34659C128.423 8.86364 128.562 9.42614 128.562 10.0341V19H124.165V17.1591H124.062C123.801 17.6477 123.483 18.0426 123.108 18.3438C122.739 18.6449 122.315 18.8636 121.838 19C121.366 19.1364 120.847 19.2045 120.278 19.2045ZM121.812 16.2386C122.17 16.2386 122.506 16.1648 122.818 16.017C123.136 15.8693 123.395 15.6562 123.594 15.3778C123.793 15.0994 123.892 14.7614 123.892 14.3636V13.2727C123.767 13.3239 123.634 13.3722 123.491 13.4176C123.355 13.4631 123.207 13.5057 123.048 13.5455C122.895 13.5852 122.73 13.6222 122.554 13.6562C122.384 13.6903 122.205 13.7216 122.017 13.75C121.653 13.8068 121.355 13.9006 121.122 14.0312C120.895 14.1562 120.724 14.3125 120.611 14.5C120.503 14.6818 120.449 14.8864 120.449 15.1136C120.449 15.4773 120.577 15.7557 120.832 15.9489C121.088 16.142 121.415 16.2386 121.812 16.2386ZM130.81 19V5.90909H135.515V19H130.81ZM133.163 4.54545C132.526 4.54545 131.981 4.33523 131.526 3.91477C131.072 3.49432 130.844 2.98864 130.844 2.39773C130.844 1.80682 131.072 1.30114 131.526 0.880681C131.981 0.460227 132.526 0.25 133.163 0.25C133.805 0.25 134.35 0.460227 134.799 0.880681C135.254 1.30114 135.481 1.80682 135.481 2.39773C135.481 2.98864 135.254 3.49432 134.799 3.91477C134.35 4.33523 133.805 4.54545 133.163 4.54545ZM144.185 19.2386C142.787 19.2386 141.582 18.9716 140.571 18.4375C139.565 17.8977 138.79 17.125 138.244 16.1193C137.705 15.108 137.435 13.8977 137.435 12.4886C137.435 11.1364 137.707 9.95455 138.253 8.94318C138.798 7.93182 139.568 7.14489 140.562 6.58239C141.557 6.01989 142.73 5.73864 144.082 5.73864C145.071 5.73864 145.966 5.89205 146.767 6.19886C147.568 6.50568 148.253 6.9517 148.821 7.53693C149.389 8.11648 149.827 8.82102 150.134 9.65057C150.44 10.4801 150.594 11.4148 150.594 12.4545V13.5455H138.901V10.9545H146.264C146.259 10.5795 146.162 10.25 145.974 9.96591C145.793 9.67614 145.545 9.4517 145.233 9.29261C144.926 9.12784 144.577 9.04545 144.185 9.04545C143.804 9.04545 143.455 9.12784 143.136 9.29261C142.818 9.4517 142.563 9.6733 142.369 9.95739C142.182 10.2415 142.082 10.5739 142.071 10.9545V13.75C142.071 14.1705 142.159 14.5455 142.335 14.875C142.511 15.2045 142.764 15.4631 143.094 15.6506C143.423 15.8381 143.821 15.9318 144.287 15.9318C144.611 15.9318 144.906 15.8864 145.173 15.7955C145.446 15.7045 145.679 15.5739 145.872 15.4034C146.065 15.2273 146.207 15.017 146.298 14.7727H150.594C150.446 15.6818 150.097 16.4716 149.545 17.142C148.994 17.8068 148.264 18.3239 147.355 18.6932C146.452 19.0568 145.395 19.2386 144.185 19.2386ZM164.479 10.1705H160.15C160.127 9.90341 160.033 9.6733 159.869 9.48011C159.704 9.28693 159.491 9.1392 159.229 9.03693C158.974 8.92898 158.69 8.875 158.377 8.875C157.974 8.875 157.627 8.94886 157.337 9.09659C157.048 9.24432 156.906 9.45455 156.911 9.72727C156.906 9.92045 156.988 10.0994 157.158 10.2642C157.335 10.429 157.673 10.5568 158.173 10.6477L160.832 11.125C162.173 11.3693 163.17 11.7812 163.823 12.3608C164.482 12.9347 164.815 13.7045 164.82 14.6705C164.815 15.6023 164.536 16.4119 163.985 17.0994C163.44 17.7812 162.692 18.3097 161.744 18.6847C160.8 19.054 159.724 19.2386 158.513 19.2386C156.513 19.2386 154.948 18.8295 153.817 18.0114C152.692 17.1932 152.065 16.1136 151.934 14.7727H156.604C156.667 15.1875 156.871 15.5085 157.218 15.7358C157.57 15.9574 158.013 16.0682 158.548 16.0682C158.979 16.0682 159.335 15.9943 159.613 15.8466C159.897 15.6989 160.042 15.4886 160.048 15.2159C160.042 14.9659 159.917 14.767 159.673 14.6193C159.434 14.4716 159.059 14.3523 158.548 14.2614L156.229 13.8523C154.894 13.6193 153.894 13.1761 153.229 12.5227C152.565 11.8693 152.235 11.0284 152.241 10C152.235 9.09091 152.474 8.32102 152.957 7.69034C153.445 7.05398 154.141 6.57102 155.045 6.24148C155.954 5.90625 157.031 5.73864 158.275 5.73864C160.167 5.73864 161.658 6.13068 162.749 6.91477C163.846 7.69886 164.423 8.78409 164.479 10.1705Z" fill="black"/>
</svg>
