<svg width="98" height="19" viewBox="0 0 98 19" fill="none" xmlns="http://www.w3.org/2000/svg">
<path d="M0.125 18V0.545454H4.86364V14.1818H11.9205V18H0.125ZM17.5518 18.2045C16.7166 18.2045 15.978 18.0682 15.3359 17.7955C14.6996 17.517 14.1996 17.0966 13.8359 16.5341C13.4723 15.9716 13.2905 15.2557 13.2905 14.3864C13.2905 13.6705 13.4126 13.0597 13.657 12.554C13.9013 12.0426 14.2422 11.625 14.6797 11.3011C15.1172 10.9773 15.6257 10.7301 16.2053 10.5597C16.7905 10.3892 17.4212 10.2784 18.0973 10.2273C18.8303 10.1705 19.4183 10.1023 19.8615 10.0227C20.3104 9.9375 20.6342 9.82102 20.8331 9.6733C21.032 9.51989 21.1314 9.31818 21.1314 9.06818V9.03409C21.1314 8.69318 21.0007 8.43182 20.7393 8.25C20.478 8.06818 20.1428 7.97727 19.7337 7.97727C19.2848 7.97727 18.9183 8.0767 18.6342 8.27557C18.3558 8.46875 18.1882 8.76705 18.1314 9.17045H13.8018C13.8587 8.375 14.1115 7.64205 14.5604 6.97159C15.0149 6.29545 15.6768 5.75568 16.5462 5.35227C17.4155 4.94318 18.5007 4.73864 19.8018 4.73864C20.7393 4.73864 21.5803 4.84943 22.3246 5.07102C23.0689 5.28693 23.7024 5.59091 24.2251 5.98295C24.7479 6.36932 25.1456 6.82386 25.4183 7.34659C25.6967 7.86364 25.8359 8.42614 25.8359 9.03409V18H21.4382V16.1591H21.3359C21.0746 16.6477 20.7564 17.0426 20.3814 17.3438C20.0121 17.6449 19.5888 17.8636 19.1115 18C18.6399 18.1364 18.12 18.2045 17.5518 18.2045ZM19.0859 15.2386C19.4439 15.2386 19.7791 15.1648 20.0916 15.017C20.4098 14.8693 20.6683 14.6562 20.8672 14.3778C21.0661 14.0994 21.1655 13.7614 21.1655 13.3636V12.2727C21.0405 12.3239 20.907 12.3722 20.7649 12.4176C20.6286 12.4631 20.4808 12.5057 20.3217 12.5455C20.1683 12.5852 20.0036 12.6222 19.8274 12.6562C19.657 12.6903 19.478 12.7216 19.2905 12.75C18.9268 12.8068 18.6286 12.9006 18.3956 13.0312C18.1683 13.1562 17.9979 13.3125 17.8842 13.5C17.7763 13.6818 17.7223 13.8864 17.7223 14.1136C17.7223 14.4773 17.8501 14.7557 18.1058 14.9489C18.3615 15.142 18.6882 15.2386 19.0859 15.2386ZM35.8906 4.90909V8.31818H27.2656V4.90909H35.8906ZM28.9361 1.77273H33.6406V13.7898C33.6406 13.9716 33.6719 14.125 33.7344 14.25C33.7969 14.3693 33.8935 14.4602 34.0241 14.5227C34.1548 14.5795 34.3224 14.608 34.527 14.608C34.669 14.608 34.8338 14.5909 35.0213 14.5568C35.2145 14.5227 35.3565 14.4943 35.4474 14.4716L36.1293 17.7784C35.919 17.8409 35.6179 17.9176 35.2259 18.0085C34.8395 18.0994 34.3793 18.1591 33.8452 18.1875C32.7656 18.2443 31.8594 18.1335 31.1264 17.8551C30.3935 17.571 29.8423 17.125 29.473 16.517C29.1037 15.9091 28.9247 15.1477 28.9361 14.233V1.77273ZM43.9425 18.2386C42.5447 18.2386 41.3402 17.9716 40.3288 17.4375C39.3232 16.8977 38.5476 16.125 38.0021 15.1193C37.4624 14.108 37.1925 12.8977 37.1925 11.4886C37.1925 10.1364 37.4652 8.95455 38.0107 7.94318C38.5561 6.93182 39.326 6.14489 40.3203 5.58239C41.3146 5.01989 42.4879 4.73864 43.8402 4.73864C44.8288 4.73864 45.7237 4.89205 46.5249 5.19886C47.326 5.50568 48.0107 5.9517 48.5788 6.53693C49.147 7.11648 49.5845 7.82102 49.8913 8.65057C50.1982 9.48011 50.3516 10.4148 50.3516 11.4545V12.5455H38.6584V9.95455H46.022C46.0163 9.57955 45.9197 9.25 45.7322 8.96591C45.5504 8.67614 45.3033 8.4517 44.9908 8.29261C44.6839 8.12784 44.3345 8.04545 43.9425 8.04545C43.5618 8.04545 43.2124 8.12784 42.8942 8.29261C42.576 8.4517 42.3203 8.6733 42.1271 8.95739C41.9396 9.24148 41.8402 9.57386 41.8288 9.95455V12.75C41.8288 13.1705 41.9169 13.5455 42.093 13.875C42.2692 14.2045 42.522 14.4631 42.8516 14.6506C43.1811 14.8381 43.5788 14.9318 44.0447 14.9318C44.3686 14.9318 44.6641 14.8864 44.9311 14.7955C45.2038 14.7045 45.4368 14.5739 45.63 14.4034C45.8232 14.2273 45.9652 14.017 46.0561 13.7727H50.3516C50.2038 14.6818 49.8544 15.4716 49.3033 16.142C48.7521 16.8068 48.022 17.3239 47.1129 17.6932C46.2095 18.0568 45.1527 18.2386 43.9425 18.2386ZM52.2713 18V4.90909H56.7372V7.39773H56.8736C57.1463 6.57955 57.6122 5.93182 58.2713 5.45454C58.9304 4.97727 59.7145 4.73864 60.6236 4.73864C61.544 4.73864 62.3366 4.98295 63.0014 5.47159C63.6662 5.95455 64.0668 6.59659 64.2031 7.39773H64.3395C64.5611 6.59659 65.0327 5.95455 65.7543 5.47159C66.4759 4.98295 67.3224 4.73864 68.294 4.73864C69.5497 4.73864 70.5668 5.14205 71.3452 5.94886C72.1293 6.75568 72.5213 7.82955 72.5213 9.17045V18H67.8168V10.3636C67.8168 9.78977 67.6719 9.34091 67.3821 9.01705C67.0923 8.6875 66.7031 8.52273 66.2145 8.52273C65.7315 8.52273 65.348 8.6875 65.0639 9.01705C64.7855 9.34091 64.6463 9.78977 64.6463 10.3636V18H60.1463V10.3636C60.1463 9.78977 60.0014 9.34091 59.7116 9.01705C59.4219 8.6875 59.0327 8.52273 58.544 8.52273C58.2202 8.52273 57.9418 8.59659 57.7088 8.74432C57.4759 8.89205 57.294 9.10511 57.1634 9.38352C57.0384 9.65625 56.9759 9.98295 56.9759 10.3636V18H52.2713ZM78.4893 18.2045C77.6541 18.2045 76.9155 18.0682 76.2734 17.7955C75.6371 17.517 75.1371 17.0966 74.7734 16.5341C74.4098 15.9716 74.228 15.2557 74.228 14.3864C74.228 13.6705 74.3501 13.0597 74.5945 12.554C74.8388 12.0426 75.1797 11.625 75.6172 11.3011C76.0547 10.9773 76.5632 10.7301 77.1428 10.5597C77.728 10.3892 78.3587 10.2784 79.0348 10.2273C79.7678 10.1705 80.3558 10.1023 80.799 10.0227C81.2479 9.9375 81.5717 9.82102 81.7706 9.6733C81.9695 9.51989 82.0689 9.31818 82.0689 9.06818V9.03409C82.0689 8.69318 81.9382 8.43182 81.6768 8.25C81.4155 8.06818 81.0803 7.97727 80.6712 7.97727C80.2223 7.97727 79.8558 8.0767 79.5717 8.27557C79.2933 8.46875 79.1257 8.76705 79.0689 9.17045H74.7393C74.7962 8.375 75.049 7.64205 75.4979 6.97159C75.9524 6.29545 76.6143 5.75568 77.4837 5.35227C78.353 4.94318 79.4382 4.73864 80.7393 4.73864C81.6768 4.73864 82.5178 4.84943 83.2621 5.07102C84.0064 5.28693 84.6399 5.59091 85.1626 5.98295C85.6854 6.36932 86.0831 6.82386 86.3558 7.34659C86.6342 7.86364 86.7734 8.42614 86.7734 9.03409V18H82.3757V16.1591H82.2734C82.0121 16.6477 81.6939 17.0426 81.3189 17.3438C80.9496 17.6449 80.5263 17.8636 80.049 18C79.5774 18.1364 79.0575 18.2045 78.4893 18.2045ZM80.0234 15.2386C80.3814 15.2386 80.7166 15.1648 81.0291 15.017C81.3473 14.8693 81.6058 14.6562 81.8047 14.3778C82.0036 14.0994 82.103 13.7614 82.103 13.3636V12.2727C81.978 12.3239 81.8445 12.3722 81.7024 12.4176C81.5661 12.4631 81.4183 12.5057 81.2592 12.5455C81.1058 12.5852 80.9411 12.6222 80.7649 12.6562C80.5945 12.6903 80.4155 12.7216 80.228 12.75C79.8643 12.8068 79.5661 12.9006 79.3331 13.0312C79.1058 13.1562 78.9354 13.3125 78.8217 13.5C78.7138 13.6818 78.6598 13.8864 78.6598 14.1136C78.6598 14.4773 78.7876 14.7557 79.0433 14.9489C79.299 15.142 79.6257 15.2386 80.0234 15.2386ZM89.0213 18V4.90909H93.5895V7.39773H93.7259C93.9645 6.47727 94.3423 5.80398 94.8594 5.37784C95.3821 4.9517 95.9929 4.73864 96.6918 4.73864C96.8963 4.73864 97.098 4.75568 97.2969 4.78977C97.5014 4.81818 97.6974 4.8608 97.8849 4.91761V8.93182C97.652 8.85227 97.3651 8.79261 97.0241 8.75284C96.6832 8.71307 96.3906 8.69318 96.1463 8.69318C95.6861 8.69318 95.2713 8.7983 94.902 9.00852C94.5384 9.21307 94.2514 9.50284 94.0412 9.87784C93.831 10.2472 93.7259 10.6818 93.7259 11.1818V18H89.0213Z" fill="black"/>
</svg>
