<svg width="192" height="24" viewBox="0 0 192 24" fill="none" xmlns="http://www.w3.org/2000/svg">
<path d="M0.409091 1.54545H5.69318L9.10227 8.63636H9.23864L12.6477 1.54545H17.9318L11.5227 13.5114V19H6.81818V13.5114L0.409091 1.54545ZM22.5234 19.2386C21.103 19.2386 19.8871 18.9574 18.8757 18.3949C17.8643 17.8267 17.0888 17.0369 16.549 16.0256C16.0092 15.0085 15.7393 13.8295 15.7393 12.4886C15.7393 11.1477 16.0092 9.97159 16.549 8.96023C17.0888 7.94318 17.8643 7.15341 18.8757 6.59091C19.8871 6.02273 21.103 5.73864 22.5234 5.73864C23.9439 5.73864 25.1598 6.02273 26.1712 6.59091C27.1825 7.15341 27.9581 7.94318 28.4979 8.96023C29.0376 9.97159 29.3075 11.1477 29.3075 12.4886C29.3075 13.8295 29.0376 15.0085 28.4979 16.0256C27.9581 17.0369 27.1825 17.8267 26.1712 18.3949C25.1598 18.9574 23.9439 19.2386 22.5234 19.2386ZM22.5575 15.7614C22.9553 15.7614 23.299 15.6278 23.5888 15.3608C23.8786 15.0937 24.103 14.7131 24.2621 14.2188C24.4212 13.7244 24.5007 13.1364 24.5007 12.4545C24.5007 11.767 24.4212 11.179 24.2621 10.6903C24.103 10.196 23.8786 9.81534 23.5888 9.5483C23.299 9.28125 22.9553 9.14773 22.5575 9.14773C22.1371 9.14773 21.7763 9.28125 21.4751 9.5483C21.174 9.81534 20.9439 10.196 20.7848 10.6903C20.6257 11.179 20.5462 11.767 20.5462 12.4545C20.5462 13.1364 20.6257 13.7244 20.7848 14.2188C20.9439 14.7131 21.174 15.0937 21.4751 15.3608C21.7763 15.6278 22.1371 15.7614 22.5575 15.7614ZM43.1825 10.1705H38.853C38.8303 9.90341 38.7365 9.6733 38.5717 9.48011C38.407 9.28693 38.1939 9.1392 37.9325 9.03693C37.6768 8.92898 37.3928 8.875 37.0803 8.875C36.6768 8.875 36.3303 8.94886 36.0405 9.09659C35.7507 9.24432 35.6087 9.45455 35.6143 9.72727C35.6087 9.92045 35.6911 10.0994 35.8615 10.2642C36.0376 10.429 36.3757 10.5568 36.8757 10.6477L39.5348 11.125C40.8757 11.3693 41.8729 11.7812 42.5263 12.3608C43.1854 12.9347 43.5178 13.7045 43.5234 14.6705C43.5178 15.6023 43.2393 16.4119 42.6882 17.0994C42.1428 17.7812 41.3956 18.3097 40.4467 18.6847C39.5036 19.054 38.4268 19.2386 37.2166 19.2386C35.2166 19.2386 33.6513 18.8295 32.5206 18.0114C31.3956 17.1932 30.7678 16.1136 30.6371 14.7727H35.3075C35.37 15.1875 35.5746 15.5085 35.9212 15.7358C36.2734 15.9574 36.7166 16.0682 37.2507 16.0682C37.6825 16.0682 38.0376 15.9943 38.3161 15.8466C38.6001 15.6989 38.745 15.4886 38.7507 15.2159C38.745 14.9659 38.62 14.767 38.3757 14.6193C38.1371 14.4716 37.7621 14.3523 37.2507 14.2614L34.9325 13.8523C33.5973 13.6193 32.5973 13.1761 31.9325 12.5227C31.2678 11.8693 30.9382 11.0284 30.9439 10C30.9382 9.09091 31.1768 8.32102 31.6598 7.69034C32.1484 7.05398 32.8445 6.57102 33.7479 6.24148C34.657 5.90625 35.7337 5.73864 36.978 5.73864C38.87 5.73864 40.3615 6.13068 41.4524 6.91477C42.549 7.69886 43.1257 8.78409 43.1825 10.1705ZM51.5987 19.2386C50.201 19.2386 48.9964 18.9716 47.9851 18.4375C46.9794 17.8977 46.2038 17.125 45.6584 16.1193C45.1186 15.108 44.8487 13.8977 44.8487 12.4886C44.8487 11.1364 45.1214 9.95455 45.6669 8.94318C46.2124 7.93182 46.9822 7.14489 47.9766 6.58239C48.9709 6.01989 50.1442 5.73864 51.4964 5.73864C52.4851 5.73864 53.38 5.89205 54.1811 6.19886C54.9822 6.50568 55.6669 6.9517 56.2351 7.53693C56.8033 8.11648 57.2408 8.82102 57.5476 9.65057C57.8544 10.4801 58.0078 11.4148 58.0078 12.4545V13.5455H46.3146V10.9545H53.6783C53.6726 10.5795 53.576 10.25 53.3885 9.96591C53.2067 9.67614 52.9595 9.4517 52.647 9.29261C52.3402 9.12784 51.9908 9.04545 51.5987 9.04545C51.218 9.04545 50.8686 9.12784 50.5504 9.29261C50.2322 9.4517 49.9766 9.6733 49.7834 9.95739C49.5959 10.2415 49.4964 10.5739 49.4851 10.9545V13.75C49.4851 14.1705 49.5732 14.5455 49.7493 14.875C49.9254 15.2045 50.1783 15.4631 50.5078 15.6506C50.8374 15.8381 51.2351 15.9318 51.701 15.9318C52.0249 15.9318 52.3203 15.8864 52.5874 15.7955C52.8601 15.7045 53.093 15.5739 53.2862 15.4034C53.4794 15.2273 53.6214 15.017 53.7124 14.7727H58.0078C57.8601 15.6818 57.5107 16.4716 56.9595 17.142C56.4084 17.8068 55.6783 18.3239 54.7692 18.6932C53.8658 19.0568 52.8089 19.2386 51.5987 19.2386ZM59.9276 19V5.90909H64.3935V8.39773H64.5298C64.8026 7.57955 65.2685 6.93182 65.9276 6.45454C66.5866 5.97727 67.3707 5.73864 68.2798 5.73864C69.2003 5.73864 69.9929 5.98295 70.6577 6.47159C71.3224 6.95455 71.723 7.59659 71.8594 8.39773H71.9957C72.2173 7.59659 72.6889 6.95455 73.4105 6.47159C74.1321 5.98295 74.9787 5.73864 75.9503 5.73864C77.206 5.73864 78.223 6.14205 79.0014 6.94886C79.7855 7.75568 80.1776 8.82955 80.1776 10.1705V19H75.473V11.3636C75.473 10.7898 75.3281 10.3409 75.0384 10.017C74.7486 9.6875 74.3594 9.52273 73.8707 9.52273C73.3878 9.52273 73.0043 9.6875 72.7202 10.017C72.4418 10.3409 72.3026 10.7898 72.3026 11.3636V19H67.8026V11.3636C67.8026 10.7898 67.6577 10.3409 67.3679 10.017C67.0781 9.6875 66.6889 9.52273 66.2003 9.52273C65.8764 9.52273 65.598 9.59659 65.3651 9.74432C65.1321 9.89205 64.9503 10.1051 64.8196 10.3835C64.6946 10.6562 64.6321 10.983 64.6321 11.3636V19H59.9276ZM82.4979 19V5.90909H87.2024V19H82.4979ZM84.8501 4.54545C84.2138 4.54545 83.6683 4.33523 83.2138 3.91477C82.7592 3.49432 82.532 2.98864 82.532 2.39773C82.532 1.80682 82.7592 1.30114 83.2138 0.880681C83.6683 0.460227 84.2138 0.25 84.8501 0.25C85.4922 0.25 86.0376 0.460227 86.4865 0.880681C86.9411 1.30114 87.1683 1.80682 87.1683 2.39773C87.1683 2.98864 86.9411 3.49432 86.4865 3.91477C86.0376 4.33523 85.4922 4.54545 84.8501 4.54545ZM97.4062 5.90909V9.31818H88.7812V5.90909H97.4062ZM90.4517 2.77273H95.1562V14.7898C95.1562 14.9716 95.1875 15.125 95.25 15.25C95.3125 15.3693 95.4091 15.4602 95.5398 15.5227C95.6705 15.5795 95.8381 15.608 96.0426 15.608C96.1847 15.608 96.3494 15.5909 96.5369 15.5568C96.7301 15.5227 96.8722 15.4943 96.9631 15.4716L97.6449 18.7784C97.4347 18.8409 97.1335 18.9176 96.7415 19.0085C96.3551 19.0994 95.8949 19.1591 95.3608 19.1875C94.2813 19.2443 93.375 19.1335 92.642 18.8551C91.9091 18.571 91.358 18.125 90.9886 17.517C90.6193 16.9091 90.4403 16.1477 90.4517 15.233V2.77273ZM105.458 19.2386C104.06 19.2386 102.856 18.9716 101.844 18.4375C100.839 17.8977 100.063 17.125 99.5178 16.1193C98.978 15.108 98.7081 13.8977 98.7081 12.4886C98.7081 11.1364 98.9808 9.95455 99.5263 8.94318C100.072 7.93182 100.842 7.14489 101.836 6.58239C102.83 6.01989 104.004 5.73864 105.356 5.73864C106.344 5.73864 107.239 5.89205 108.04 6.19886C108.842 6.50568 109.526 6.9517 110.094 7.53693C110.663 8.11648 111.1 8.82102 111.407 9.65057C111.714 10.4801 111.867 11.4148 111.867 12.4545V13.5455H100.174V10.9545H107.538C107.532 10.5795 107.435 10.25 107.248 9.96591C107.066 9.67614 106.819 9.4517 106.506 9.29261C106.2 9.12784 105.85 9.04545 105.458 9.04545C105.077 9.04545 104.728 9.12784 104.41 9.29261C104.092 9.4517 103.836 9.6733 103.643 9.95739C103.455 10.2415 103.356 10.5739 103.344 10.9545V13.75C103.344 14.1705 103.433 14.5455 103.609 14.875C103.785 15.2045 104.038 15.4631 104.367 15.6506C104.697 15.8381 105.094 15.9318 105.56 15.9318C105.884 15.9318 106.18 15.8864 106.447 15.7955C106.719 15.7045 106.952 15.5739 107.146 15.4034C107.339 15.2273 107.481 15.017 107.572 14.7727H111.867C111.719 15.6818 111.37 16.4716 110.819 17.142C110.268 17.8068 109.538 18.3239 108.629 18.6932C107.725 19.0568 106.668 19.2386 105.458 19.2386ZM123.273 1.54545L126.852 13.8523H126.989L130.568 1.54545H135.92L130.159 19H123.682L117.92 1.54545H123.273ZM139.724 19.2045C138.888 19.2045 138.15 19.0682 137.508 18.7955C136.871 18.517 136.371 18.0966 136.008 17.5341C135.644 16.9716 135.462 16.2557 135.462 15.3864C135.462 14.6705 135.585 14.0597 135.829 13.554C136.073 13.0426 136.414 12.625 136.852 12.3011C137.289 11.9773 137.798 11.7301 138.377 11.5597C138.962 11.3892 139.593 11.2784 140.269 11.2273C141.002 11.1705 141.59 11.1023 142.033 11.0227C142.482 10.9375 142.806 10.821 143.005 10.6733C143.204 10.5199 143.303 10.3182 143.303 10.0682V10.0341C143.303 9.69318 143.173 9.43182 142.911 9.25C142.65 9.06818 142.315 8.97727 141.906 8.97727C141.457 8.97727 141.09 9.0767 140.806 9.27557C140.528 9.46875 140.36 9.76705 140.303 10.1705H135.974C136.031 9.375 136.283 8.64205 136.732 7.97159C137.187 7.29545 137.849 6.75568 138.718 6.35227C139.587 5.94318 140.673 5.73864 141.974 5.73864C142.911 5.73864 143.752 5.84943 144.496 6.07102C145.241 6.28693 145.874 6.59091 146.397 6.98295C146.92 7.36932 147.317 7.82386 147.59 8.34659C147.869 8.86364 148.008 9.42614 148.008 10.0341V19H143.61V17.1591H143.508C143.246 17.6477 142.928 18.0426 142.553 18.3438C142.184 18.6449 141.761 18.8636 141.283 19C140.812 19.1364 140.292 19.2045 139.724 19.2045ZM141.258 16.2386C141.616 16.2386 141.951 16.1648 142.263 16.017C142.582 15.8693 142.84 15.6562 143.039 15.3778C143.238 15.0994 143.337 14.7614 143.337 14.3636V13.2727C143.212 13.3239 143.079 13.3722 142.937 13.4176C142.8 13.4631 142.653 13.5057 142.494 13.5455C142.34 13.5852 142.175 13.6222 141.999 13.6562C141.829 13.6903 141.65 13.7216 141.462 13.75C141.099 13.8068 140.8 13.9006 140.567 14.0312C140.34 14.1562 140.17 14.3125 140.056 14.5C139.948 14.6818 139.894 14.8864 139.894 15.1136C139.894 15.4773 140.022 15.7557 140.278 15.9489C140.533 16.142 140.86 16.2386 141.258 16.2386ZM154.96 1.54545V19H150.256V1.54545H154.96ZM162.062 1.54545V19H157.357V1.54545H162.062ZM170.732 19.2386C169.334 19.2386 168.129 18.9716 167.118 18.4375C166.112 17.8977 165.337 17.125 164.791 16.1193C164.251 15.108 163.982 13.8977 163.982 12.4886C163.982 11.1364 164.254 9.95455 164.8 8.94318C165.345 7.93182 166.115 7.14489 167.109 6.58239C168.104 6.01989 169.277 5.73864 170.629 5.73864C171.618 5.73864 172.513 5.89205 173.314 6.19886C174.115 6.50568 174.8 6.9517 175.368 7.53693C175.936 8.11648 176.374 8.82102 176.68 9.65057C176.987 10.4801 177.141 11.4148 177.141 12.4545V13.5455H165.447V10.9545H172.811C172.805 10.5795 172.709 10.25 172.521 9.96591C172.339 9.67614 172.092 9.4517 171.78 9.29261C171.473 9.12784 171.124 9.04545 170.732 9.04545C170.351 9.04545 170.001 9.12784 169.683 9.29261C169.365 9.4517 169.109 9.6733 168.916 9.95739C168.729 10.2415 168.629 10.5739 168.618 10.9545V13.75C168.618 14.1705 168.706 14.5455 168.882 14.875C169.058 15.2045 169.311 15.4631 169.641 15.6506C169.97 15.8381 170.368 15.9318 170.834 15.9318C171.158 15.9318 171.453 15.8864 171.72 15.7955C171.993 15.7045 172.226 15.5739 172.419 15.4034C172.612 15.2273 172.754 15.017 172.845 14.7727H177.141C176.993 15.6818 176.643 16.4716 176.092 17.142C175.541 17.8068 174.811 18.3239 173.902 18.6932C172.999 19.0568 171.942 19.2386 170.732 19.2386ZM181.596 23.9091C181.056 23.9091 180.542 23.8665 180.053 23.7812C179.565 23.7017 179.136 23.5909 178.766 23.4489L179.789 20.108C180.175 20.2443 180.528 20.3324 180.846 20.3722C181.17 20.4119 181.445 20.3892 181.673 20.304C181.906 20.2188 182.073 20.0568 182.175 19.8182L182.278 19.5795L177.675 5.90909H182.585L184.698 14.9773H184.835L186.982 5.90909H191.925L187.153 20.0909C186.914 20.8125 186.567 21.4602 186.113 22.0341C185.664 22.6136 185.073 23.071 184.34 23.4062C183.607 23.7415 182.692 23.9091 181.596 23.9091Z" fill="black"/>
</svg>
